<svg width="1030" height="72" viewBox="0 0 1030 72" fill="none" xmlns="http://www.w3.org/2000/svg">
<g clip-path="url(#clip0_40586_297)">
<path fill-rule="evenodd" clip-rule="evenodd" d="M197.149 85.4889V85.4889L197.256 85.7576L197.578 86.0328L198.12 86.3211L198.89 86.6297L199.897 86.966L201.153 87.3378L202.668 87.7534L204.445 88.2212L206.481 88.7489L208.755 89.3424L211.221 90.0042L213.801 90.7307L216.372 91.5097L218.769 92.3178L220.794 93.1199L222.244 93.8721L222.949 94.5275L222.817 95.0464L221.857 95.4046L220.178 95.5986L217.96 95.6444L215.41 95.5712L212.723 95.4142L210.059 95.208L207.532 94.9824L205.215 94.7606L203.146 94.5601L201.341 94.3931L199.801 94.2681L198.518 94.1909L197.479 94.1659L196.671 94.197L196.084 94.2876L195.707 94.4418L195.534 94.6642L195.561 94.9604L195.789 95.3374L196.219 95.8031L196.857 96.367L197.71 97.0395L198.784 97.8318L200.087 98.7548L201.619 99.8179L203.372 101.026L205.324 102.378L207.428 103.857L209.607 105.433L211.748 107.048L213.7 108.622L215.288 110.053L216.338 111.23L216.71 112.051L216.339 112.453L215.251 112.42L213.557 111.992L211.424 111.248L209.036 110.288L206.564 109.211L204.14 108.103L201.858 107.028L199.776 106.033L197.923 105.145L196.306 104.381L194.923 103.747L193.764 103.246L192.815 102.879L192.063 102.643L191.497 102.539L191.106 102.566L190.883 102.729L190.823 103.03L190.924 103.476L191.184 104.076L191.607 104.841L192.195 105.783L192.95 106.914L193.876 108.248L194.968 109.793L196.218 111.55L197.603 113.508L199.082 115.634L200.593 117.869L202.044 120.119L203.321 122.251L204.291 124.108L204.832 125.526L204.85 126.368L204.314 126.555L203.257 126.093L201.777 125.061L200.004 123.595L198.079 121.854L196.124 119.988L194.233 118.118L192.469 116.337L190.868 114.702L189.446 113.25L188.204 111.995L187.136 110.944L186.232 110.094L185.479 109.44L184.866 108.978L184.381 108.703L184.015 108.613L183.76 108.706L183.611 108.986L183.562 109.458L183.612 110.13L183.757 111.014L183.997 112.123L184.331 113.468L184.754 115.063L185.262 116.914L185.844 119.017L186.482 121.352L187.149 123.873L187.804 126.497L188.392 129.1L188.85 131.517L189.108 133.551L189.106 135.007L188.809 135.732L188.214 135.648L187.357 134.781L186.302 133.247L185.128 131.225L183.911 128.908L182.714 126.479L181.582 124.081L180.54 121.817L179.602 119.752L178.77 117.922L178.04 116.34L177.403 115.008L176.851 113.922L176.372 113.071L175.959 112.447L175.602 112.043L175.294 111.852L175.026 111.871L174.793 112.103L174.589 112.55L174.409 113.221L174.245 114.123L174.094 115.271L173.949 116.674L173.803 118.343L173.649 120.281L173.477 122.481L173.278 124.915L173.042 127.525L172.758 130.219L172.419 132.855L172.02 135.251L171.564 137.201L171.063 138.501L170.535 139L170.005 138.637L169.498 137.456L169.035 135.597L168.626 133.258L168.277 130.646L167.985 127.952L167.742 125.321L167.538 122.854L167.363 120.615L167.206 118.634L167.059 116.922L166.915 115.477L166.765 114.289L166.604 113.349L166.426 112.642L166.227 112.16L165.999 111.894L165.737 111.841L165.436 111.998L165.087 112.368L164.683 112.957L164.216 113.771L163.676 114.819L163.053 116.111L162.338 117.653L161.523 119.444L160.602 121.474L159.576 123.71L158.457 126.092L157.268 128.525L156.05 130.87L154.865 132.953L153.786 134.577L152.892 135.56L152.252 135.773L151.906 135.175L151.859 133.826L152.079 131.872L152.51 129.503L153.082 126.917L153.73 124.287L154.398 121.743L155.043 119.374L155.636 117.232L156.156 115.341L156.593 113.705L156.941 112.321L157.196 111.176L157.357 110.257L157.422 109.551L157.389 109.048L157.256 108.738L157.018 108.615L156.671 108.677L156.205 108.922L155.613 109.354L154.883 109.976L154.004 110.795L152.963 111.814L151.75 113.036L150.356 114.458L148.783 116.065L147.043 117.827L145.169 119.687L143.218 121.562L141.281 123.332L139.475 124.852L137.939 125.963L136.807 126.524L136.184 126.442L136.114 125.702L136.577 124.367L137.487 122.569L138.723 120.47L140.155 118.23L141.663 115.985L143.152 113.836L144.555 111.849L145.828 110.059L146.947 108.48L147.899 107.113L148.682 105.95L149.296 104.979L149.745 104.187L150.031 103.561L150.157 103.091L150.122 102.767L149.926 102.583L149.562 102.534L149.025 102.617L148.303 102.832L147.387 103.179L146.262 103.658L144.915 104.271L143.336 105.015L141.52 105.884L139.473 106.864L137.221 107.928L134.814 109.034L132.341 110.121L129.93 111.107L127.744 111.892L125.967 112.376L124.774 112.476L124.285 112.144L124.541 111.386L125.49 110.261L127.003 108.863L128.91 107.304L131.031 105.689L133.213 104.103L135.335 102.605L137.315 101.232L139.102 100.001L140.67 98.9146L142.009 97.9698L143.12 97.1574L144.007 96.4666L144.679 95.8861L145.142 95.4054L145.401 95.0149L145.461 94.7062L145.32 94.4725L144.976 94.3078L144.422 94.2073L143.651 94.1671L142.649 94.1833L141.405 94.2524L139.907 94.3702L138.145 94.531L136.118 94.7269L133.838 94.9463L131.34 95.1727L128.692 95.3839L125.999 95.5508L123.415 95.6398L121.13 95.6152L119.352 95.4463L118.267 95.1145L118 94.6201L118.576 93.9841L119.917 93.2443L121.864 92.447L124.216 91.6372L126.771 90.8518L129.358 90.1158L131.849 89.4433L134.158 88.8389L136.234 88.301L138.053 87.8242L139.608 87.4008L140.905 87.0226L141.952 86.6812L142.759 86.3687L143.336 86.0776L143.693 85.8008L143.834 85.5316L143.761 85.2633L143.474 84.9897L142.967 84.7039L142.234 84.399L141.265 84.0677L140.049 83.7021L138.577 83.294L136.841 82.835L134.846 82.3173L132.608 81.7346L130.167 81.0836L127.599 80.3668L125.016 79.595L122.579 78.7895L120.481 77.9836L118.926 77.2203L118.094 76.5465L118.09 76.0038L118.924 75.6192L120.499 75.3996L122.645 75.332L125.156 75.3885L127.833 75.5345L130.509 75.735L133.064 75.9593L135.418 76.183L137.528 76.3878L139.375 76.5608L140.956 76.693L142.28 76.7781L143.357 76.8116L144.201 76.7897L144.823 76.7089L145.232 76.5651L145.438 76.3539L145.442 76.0699L145.246 75.7063L144.849 75.2552L144.244 74.7077L143.426 74.0532L142.387 73.2808L141.121 72.3792L139.626 71.3389L137.907 70.1537L135.984 68.8245L133.9 67.3636L131.726 65.8005L129.57 64.1868L127.577 62.5995L125.918 61.1383L124.773 59.9142L124.286 59.0307L124.538 58.5599L125.517 58.5248L127.125 58.8946L129.2 59.5947L131.559 60.5272L134.028 61.5916L136.467 62.6997L138.776 63.7828L140.892 64.7929L142.783 65.6991L144.438 66.4839L145.858 67.1388L147.052 67.6608L148.033 68.0497L148.815 68.3064L149.41 68.4316L149.828 68.4249L150.078 68.2842L150.163 68.0057L150.089 67.5831L149.854 67.0081L149.457 66.2703L148.896 65.3576L148.167 64.257L147.269 62.956L146.202 61.4451L144.976 59.7215L143.611 57.7942L142.143 55.6915L140.632 53.4682L139.164 51.2134L137.851 49.0524L136.823 47.1403L136.207 45.642L136.101 44.7016L136.55 44.4078L137.529 44.7705L138.95 45.7199L140.685 47.1267L142.595 48.8342L144.552 50.6901L146.458 52.566L148.246 54.3662L149.874 56.0269L151.325 57.51L152.596 58.7967L153.691 59.8805L154.62 60.7623L155.396 61.4465L156.031 61.9385L156.536 62.243L156.92 62.3631L157.192 62.2992L157.358 62.0494L157.422 61.6084L157.388 60.9685L157.258 60.1189L157.033 59.0473L156.714 57.7403L156.305 56.1858L155.81 54.3759L155.239 52.3121L154.608 50.0116L153.943 47.516L153.283 44.9012L152.68 42.2844L152.197 39.8256L151.903 37.7171L151.86 36.1566L152.109 35.3084L152.658 35.2625L153.477 36.0105L154.506 37.4485L155.666 39.4065L156.88 41.6888L158.084 44.1107L159.229 46.5216L160.286 48.8121L161.241 50.9118L162.09 52.7813L162.836 54.4031L163.487 55.7741L164.052 56.8991L164.541 57.7867L164.964 58.446L165.33 58.8851L165.646 59.11L165.919 59.1237L166.157 58.926L166.365 58.5135L166.55 57.8793L166.715 57.0143L166.868 55.9069L167.013 54.5451L167.159 52.9188L167.311 51.023L167.48 48.8636L167.674 46.4645L167.903 43.8767L168.179 41.1886L168.509 38.5322L168.898 36.0837L169.345 34.049L169.84 32.6336L170.365 32L170.897 32.2262L171.409 33.284L171.881 35.0468L172.298 37.3242L172.657 39.9055L172.957 42.5978L173.207 45.2471L173.417 47.7448L173.596 50.0232L173.755 52.0466L173.903 53.8016L174.048 55.2887L174.196 56.5161L174.355 57.4955L174.529 58.2386L174.725 58.756L174.948 59.0558L175.204 59.1429L175.499 59.019L175.84 58.6828L176.234 58.1296L176.691 57.3523L177.219 56.3419L177.827 55.0893L178.527 53.5875L179.326 51.8352L180.23 49.8422L181.239 47.6362L182.345 45.2717L183.525 42.8387L184.742 40.4684L185.937 38.3311L187.038 36.6208L187.967 35.5252L188.651 35.1845L189.045 35.6548L189.138 36.8917L188.957 38.762L188.556 41.0786L188.001 43.6423L187.361 46.2754L186.693 48.8398L186.042 51.2406L185.44 53.4209L184.907 55.3531L184.456 57.0291L184.094 58.453L183.824 59.6354L183.648 60.5894L183.568 61.3281L183.585 61.863L183.702 62.2033L183.922 62.3556L184.252 62.3233L184.698 62.1071L185.269 61.7052L185.976 61.1135L186.831 60.3268L187.845 59.3399L189.031 58.1499L190.395 56.7592L191.941 55.1799L193.655 53.4402L195.511 51.5905L197.455 49.711L199.402 47.9148L201.237 46.3444L202.826 45.1579L204.03 44.5017L204.739 44.478L204.897 45.116L204.515 46.363L203.669 48.0975L202.476 50.1602L201.067 52.3879L199.564 54.6396L198.066 56.8088L196.646 58.8249L195.35 60.6479L194.206 62.2607L193.227 63.6611L192.417 64.856L191.776 65.8569L191.301 66.6766L190.989 67.328L190.838 67.8222L190.847 68.1687L191.017 68.3746L191.354 68.4449L191.863 68.3826L192.554 68.1888L193.439 67.8631L194.53 67.4048L195.841 66.8133L197.382 66.0899L199.16 65.2401L201.172 64.2768L203.394 63.2237L205.781 62.1203L208.251 61.0251L210.682 60.0176L212.916 59.1936L214.77 58.6548L216.067 58.4895L216.673 58.7516L216.535 59.4442L215.689 60.517L214.254 61.8789L212.398 63.4195L210.3 65.0316L208.118 66.6269L205.98 68.1416L203.974 69.5362L202.154 70.7909L200.55 71.9L199.174 72.8668L198.028 73.6995L197.105 74.409L196.399 75.0063L195.904 75.5022L195.612 75.9065L195.521 76.2277L195.63 76.4729L195.941 76.6483L196.461 76.7587L197.197 76.8083L198.161 76.8008L199.365 76.7398L200.822 76.6295L202.542 76.4751L204.528 76.2841L206.769 76.0675L209.235 75.8409L211.866 75.6255L214.56 75.4493L217.174 75.3456L219.52 75.3498L221.393 75.4941L222.598 75.7994L223 76.2688L222.556 76.8844L221.327 77.6107L219.464 78.402L217.163 79.2125L214.628 80.0039L212.036 80.7489L209.522 81.432L207.181 82.0473L205.066 82.5954L203.205 83.0816L201.607 83.5129L200.27 83.8978L199.184 84.2444L198.34 84.561L197.726 84.855L197.335 85.1337L197.16 85.4037L197.149 85.4889Z" fill="#F1CED7" fill-opacity="0.5"/>
<path fill-rule="evenodd" clip-rule="evenodd" d="M452 4.99947V4.99947L451.979 5.31928L451.917 5.63791L451.814 5.95419L451.671 6.267L451.488 6.57522L451.268 6.87784L451.012 7.17388L450.721 7.46245L450.398 7.74274L450.045 8.01405L449.664 8.27578L449.258 8.5274L448.829 8.76853L448.38 8.99886L447.913 9.2182L447.431 9.42645L446.938 9.62362L446.434 9.80979L445.923 9.98514L445.407 10.1499L444.889 10.3045L444.37 10.4492L443.852 10.5844L443.338 10.7108L442.829 10.8288L442.326 10.9389L441.832 11.0418L441.347 11.1381L440.873 11.2283L440.41 11.3133L439.96 11.3935L439.524 11.4696L439.102 11.5424L438.694 11.6124L438.302 11.6804L437.925 11.7468L437.565 11.8125L437.221 11.878L436.894 11.9439L436.583 12.011L436.29 12.0798L436.014 12.151L435.755 12.2252L435.513 12.303L435.289 12.3851L435.083 12.4723L434.894 12.5652L434.723 12.6644L434.569 12.7709L434.434 12.8852L434.318 13.0084L434.22 13.1413L434.14 13.2848L434.08 13.4399L434.04 13.6078L434.02 13.7896L434.021 13.9867L434.043 14.2004L434.088 14.4324L434.156 14.6845L434.249 14.9585L434.367 15.2566L434.513 15.5812L434.687 15.9351L434.893 16.3213L435.131 16.7432L435.405 17.2048L435.718 17.7104L436.073 18.2652L436.473 18.8749L436.924 19.5462L437.429 20.2867L437.997 21.1054L438.632 22.0125L439.343 23.02L440.14 24.1421L441.033 25.3952L442.036 26.799L441.918 27.1206L440.501 26.1088L439.237 25.2074L438.105 24.4034L437.089 23.6855L436.174 23.0445L435.349 22.4722L434.603 21.9617L433.926 21.5069L433.312 21.1027L432.753 20.7446L432.243 20.4287L431.779 20.1516L431.354 19.9104L430.965 19.7024L430.608 19.5255L430.282 19.3776L429.981 19.2571L429.706 19.1625L429.452 19.0924L429.218 19.0458L429.003 19.0217L428.805 19.0192L428.622 19.0376L428.453 19.0763L428.297 19.1347L428.152 19.2124L428.019 19.3091L427.895 19.4243L427.78 19.5579L427.673 19.7096L427.573 19.8793L427.48 20.0667L427.392 20.2719L427.31 20.4946L427.231 20.7348L427.157 20.9924L427.086 21.2673L427.017 21.5593L426.949 21.8684L426.883 22.1944L426.818 22.537L426.752 22.8961L426.686 23.2713L426.618 23.6622L426.548 24.0685L426.476 24.4897L426.4 24.925L426.32 25.3739L426.235 25.8355L426.146 26.3088L426.05 26.7929L425.948 27.2866L425.838 27.7885L425.721 28.2972L425.595 28.8111L425.46 29.3286L425.317 29.8476L425.163 30.3662L424.999 30.8824L424.824 31.3938L424.639 31.898L424.443 32.3927L424.235 32.8752L424.017 33.3431L423.787 33.7937L423.547 34.2243L423.296 34.6324L423.035 35.0154L422.765 35.3708L422.485 35.6963L422.197 35.9897L421.902 36.2489L421.6 36.4721L421.292 36.6575L420.979 36.804L420.663 36.9104L420.345 36.9759L420.025 37L419.705 36.9825L419.387 36.9236L419.07 36.8237L418.757 36.6835L418.448 36.5042L418.145 36.2869L417.849 36.0333L417.559 35.7453L417.279 35.4247L417.006 35.0739L416.744 34.6951L416.492 34.2909L416.25 33.8637L416.018 33.4161L415.798 32.9508L415.589 32.4704L415.391 31.9775L415.204 31.4746L415.028 30.9642L414.862 30.4487L414.707 29.9303L414.561 29.4112L414.425 28.8934L414.298 28.3788L414.18 27.8691L414.069 27.366L413.965 26.871L413.869 26.3853L413.778 25.9101L413.693 25.4466L413.612 24.9956L413.536 24.5581L413.463 24.1346L413.392 23.7259L413.324 23.3325L413.258 22.9548L413.192 22.5931L413.127 22.2478L413.061 21.9192L412.994 21.6074L412.925 21.3126L412.854 21.035L412.78 20.7747L412.703 20.5317L412.621 20.3062L412.534 20.0982L412.442 19.9079L412.343 19.7354L412.237 19.5809L412.123 19.4444L412.001 19.3262L411.869 19.2266L411.726 19.1458L411.572 19.0843L411.405 19.0424L411.225 19.0208L411.029 19.0199L410.817 19.0405L410.586 19.0835L410.336 19.1497L410.064 19.2403L409.767 19.3566L409.445 19.5L409.094 19.6722L408.71 19.8751L408.291 20.1108L407.833 20.382L407.331 20.6916L406.78 21.0427L406.175 21.4393L405.509 21.8857L404.774 22.3869L403.962 22.949L403.063 23.5785L402.064 24.2835L400.951 25.0732L399.709 25.9582L398.318 26.9514L397.793 27.0379L398.814 25.6081L399.724 24.3324L400.535 23.1906L401.26 22.1659L401.906 21.2436L402.484 20.4116L402.999 19.6592L403.458 18.9775L403.866 18.3584L404.228 17.7953L404.547 17.2822L404.827 16.814L405.071 16.386L405.282 15.9944L405.461 15.6356L405.611 15.3065L405.734 15.0043L405.83 14.7266L405.902 14.4712L405.951 14.2361L405.977 14.0196L405.981 13.8199L405.964 13.6358L405.927 13.4657L405.87 13.3087L405.794 13.1634L405.699 13.0289L405.585 12.9043L405.453 12.7885L405.303 12.6809L405.134 12.5805L404.948 12.4867L404.744 12.3987L404.523 12.3158L404.284 12.2373L404.028 12.1626L403.755 12.091L403.464 12.0218L403.156 11.9545L402.832 11.8884L402.49 11.8229L402.133 11.7573L401.759 11.691L401.369 11.6234L400.964 11.5537L400.544 11.4814L400.11 11.4059L399.662 11.3263L399.201 11.2422L398.729 11.1528L398.245 11.0575L397.753 10.9557L397.251 10.8468L396.743 10.7301L396.229 10.6051L395.712 10.4713L395.193 10.3282L394.675 10.1752L394.158 10.0121L393.646 9.83844L393.141 9.654L392.646 9.45859L392.162 9.25211L391.693 9.03453L391.241 8.80595L390.809 8.56652L390.399 8.31654L390.014 8.05639L389.656 7.78657L389.328 7.50766L389.032 7.22036L388.77 6.92545L388.544 6.62382L388.355 6.31642L388.206 6.00427L388.096 5.68847L388.027 5.37014L388 5.05044L388.014 4.73055L388.07 4.41165L388.166 4.09492L388.303 3.78149L388.48 3.47246L388.694 3.16889L388.945 2.87174L389.23 2.58192L389.548 2.30026L389.897 2.02747L390.273 1.76419L390.676 1.51092L391.101 1.2681L391.547 1.03604L392.011 0.814938L392.49 0.604919L392.982 0.405991L393.485 0.218078L393.994 0.0410178L394.51 -0.125433L395.028 -0.281585L395.547 -0.427817L396.065 -0.564562L396.58 -0.692301L397.09 -0.811562L397.594 -0.922901L398.089 -1.02691L398.576 -1.12419L399.052 -1.21538L399.516 -1.30112L399.968 -1.38204L400.407 -1.45881L400.832 -1.53207L401.242 -1.60249L401.636 -1.6707L402.015 -1.73737L402.378 -1.80312L402.725 -1.8686L403.055 -1.93444L403.368 -2.00128L403.664 -2.06976L403.943 -2.14051L404.205 -2.21416L404.449 -2.29138L404.676 -2.3728L404.885 -2.45912L405.077 -2.55101L405.251 -2.64921L405.407 -2.75445L405.545 -2.86751L405.664 -2.98924L405.766 -3.12049L405.848 -3.26221L405.911 -3.41542L405.954 -3.58119L405.978 -3.7607L405.98 -3.95525L405.961 -4.16625L405.92 -4.39526L405.856 -4.64399L405.767 -4.91435L405.653 -5.20847L405.512 -5.52871L405.342 -5.87774L405.142 -6.25855L404.909 -6.67452L404.64 -7.12948L404.334 -7.62777L403.986 -8.17434L403.593 -8.77487L403.151 -9.43587L402.655 -10.1648L402.098 -10.9704L401.474 -11.8626L400.775 -12.8533L399.993 -13.9561L399.115 -15.1871L398.131 -16.5655L397.84 -17.2939L399.283 -16.2633L400.571 -15.3452L401.722 -14.5264L402.756 -13.7956L403.686 -13.1429L404.525 -12.5601L405.283 -12.0402L405.97 -11.5769L406.594 -11.1649L407.161 -10.7998L407.678 -10.4774L408.15 -10.1943L408.581 -9.94754L408.975 -9.73444L409.336 -9.5527L409.668 -9.40033L409.972 -9.27559L410.251 -9.17694L410.509 -9.10306L410.745 -9.05279L410.963 -9.02515L411.164 -9.01925L411.349 -9.03437L411.521 -9.06985L411.679 -9.12516L411.825 -9.19983L411.96 -9.29348L412.085 -9.40578L412.202 -9.53646L412.31 -9.6853L412.411 -9.85211L412.505 -10.0368L412.594 -10.2391L412.677 -10.459L412.756 -10.6965L412.831 -10.9513L412.903 -11.2234L412.972 -11.5127L413.039 -11.8191L413.106 -12.1424L413.171 -12.4824L413.237 -12.8388L413.303 -13.2115L413.37 -13.6L413.44 -14.0039L413.512 -14.4227L413.587 -14.8558L413.666 -15.3026L413.75 -15.7622L413.839 -16.2338L413.934 -16.7162L414.035 -17.2084L414.144 -17.7091L414.26 -18.2169L414.384 -18.7301L414.517 -19.2471L414.659 -19.766L414.812 -20.2848L414.974 -20.8015L415.147 -21.3138L415.33 -21.8193L415.525 -22.3157L415.73 -22.8003L415.947 -23.2707L416.175 -23.7242L416.413 -24.1582L416.662 -24.5701L416.922 -24.9572L417.191 -25.3172L417.469 -25.6477L417.756 -25.9463L418.05 -26.211L418.351 -26.44L418.658 -26.6316L418.97 -26.7844L419.285 -26.8973L419.604 -26.9693L419.923 -27L420.243 -26.9891L420.562 -26.9368L420.879 -26.8434L421.193 -26.7096L421.502 -26.5363L421.806 -26.325L422.104 -26.0771L422.394 -25.7944L422.677 -25.4789L422.95 -25.1328L423.214 -24.7583L423.468 -24.3579L423.712 -23.9342L423.945 -23.4897L424.167 -23.027L424.378 -22.5489L424.578 -22.0578L424.767 -21.5563L424.944 -21.047L425.112 -20.5321L425.269 -20.014L425.416 -19.4949L425.553 -18.9767L425.682 -18.4615L425.802 -17.9509L425.913 -17.4467L426.018 -16.9503L426.116 -16.463L426.207 -15.9861L426.294 -15.5207L426.375 -15.0676L426.452 -14.6279L426.525 -14.2022L426.596 -13.7911L426.664 -13.3952L426.731 -13.0149L426.797 -12.6507L426.862 -12.3028L426.928 -11.9715L426.995 -11.657L427.063 -11.3595L427.134 -11.0791L427.207 -10.816L427.284 -10.5703L427.365 -10.342L427.451 -10.1312L427.543 -9.93812L427.64 -9.76277L427.745 -9.60532L427.857 -9.46594L427.978 -9.34482L428.109 -9.24223L428.25 -9.15844L428.402 -9.09383L428.567 -9.04881L428.745 -9.02389L428.938 -9.01966L429.148 -9.03682L429.375 -9.07616L429.623 -9.13862L429.891 -9.22528L430.183 -9.33738L430.501 -9.47635L430.848 -9.64382L431.226 -9.84167L431.639 -10.072L432.091 -10.3374L432.585 -10.6406L433.128 -10.9849L433.724 -11.3739L434.38 -11.8121L435.103 -12.3043L435.902 -12.8562L436.787 -13.4745L437.769 -14.1669L438.863 -14.9424L440.083 -15.8114L441.449 -16.7865L442.38 -17.2825L441.34 -15.826L440.413 -14.5272L439.587 -13.3653L438.85 -12.3229L438.191 -11.3852L437.603 -10.5396L437.078 -9.77518L436.611 -9.08272L436.195 -8.45416L435.826 -7.88256L435.501 -7.36186L435.215 -6.88678L434.965 -6.45269L434.749 -6.05553L434.565 -5.69171L434.41 -5.35806L434.284 -5.05177L434.183 -4.77034L434.107 -4.51153L434.055 -4.27332L434.026 -4.05392L434.018 -3.8517L434.031 -3.66516L434.065 -3.49298L434.119 -3.33392L434.192 -3.18684L434.284 -3.0507L434.395 -2.92454L434.524 -2.80744L434.672 -2.69857L434.837 -2.5971L435.02 -2.50229L435.221 -2.41339L435.44 -2.32971L435.676 -2.25057L435.929 -2.1753L436.2 -2.10324L436.488 -2.03376L436.793 -1.96621L437.115 -1.89997L437.454 -1.8344L437.809 -1.76886L438.18 -1.70271L438.567 -1.63532L438.97 -1.56603L439.388 -1.49421L439.82 -1.4192L440.266 -1.34034L440.724 -1.25699L441.195 -1.16848L441.676 -1.07419L442.168 -0.973472L442.668 -0.865711L443.175 -0.750307L443.688 -0.626687L444.205 -0.494308L444.724 -0.352666L445.242 -0.201305L445.759 -0.039819L446.272 0.132139L446.778 0.31484L447.275 0.50849L447.761 0.713207L448.233 0.929018L448.688 1.15586L449.123 1.39358L449.537 1.6419L449.926 1.90046L450.288 2.16878L450.621 2.44628L450.923 2.7323L451.19 3.02605L451.422 3.32667L451.617 3.63322L451.773 3.94468L451.889 4.25998L451.964 4.57799L451.998 4.89755L452 4.99947Z" fill="#F1CED7" fill-opacity="0.5"/>
<path fill-rule="evenodd" clip-rule="evenodd" d="M618.989 75.5015L619.014 75.7206L619.088 75.9412L619.212 76.165L619.387 76.3935L619.612 76.6284L619.89 76.8712L620.221 77.1238L620.607 77.388L621.048 77.6656L621.548 77.9586L622.106 78.269L622.726 78.599L623.408 78.9508L624.154 79.3267L624.967 79.7289L625.847 80.1601L626.795 80.6225L627.812 81.1186L628.897 81.6506L630.05 82.2208L631.268 82.8311L632.549 83.4831L633.887 84.1778L635.277 84.916L636.71 85.6974L638.176 86.521L639.663 87.3847L641.155 88.2851L642.635 89.2177L644.084 90.1762L645.481 91.1532L646.802 92.1396L648.023 93.1247L649.121 94.0971L650.071 95.044L650.852 95.9521L651.443 96.8082L651.828 97.5991L651.994 98.3129L651.935 98.9389L651.649 99.4684L651.138 99.8948L650.413 100.214L649.487 100.425L648.378 100.53L647.109 100.531L645.701 100.436L644.183 100.251L642.578 99.9869L640.912 99.6529L639.209 99.2602L637.491 98.8194L635.779 98.3414L634.088 97.8362L632.434 97.3133L630.83 96.7813L629.284 96.2479L627.803 95.7198L626.394 95.2029L625.059 94.7021L623.801 94.2214L622.62 93.7643L621.516 93.3334L620.487 92.931L619.533 92.5588L618.651 92.2181L617.838 91.91L617.092 91.6354L616.41 91.395L615.79 91.1894L615.228 91.0194L614.724 90.8856L614.274 90.7887L613.877 90.7297L613.53 90.7097L613.234 90.7301L612.985 90.7925L612.784 90.899L612.63 91.0519L612.522 91.2527L612.457 91.502L612.434 91.8005L612.451 92.1492L612.506 92.5496L612.598 93.0034L612.726 93.5125L612.89 94.0792L613.09 94.7059L613.323 95.3952L613.59 96.1497L613.89 96.9721L614.222 97.865L614.585 98.831L614.978 99.8722L615.399 100.99L615.846 102.187L616.316 103.462L616.806 104.815L617.313 106.244L617.831 107.746L618.354 109.316L618.877 110.945L619.392 112.626L619.889 114.345L620.361 116.088L620.797 117.837L621.187 119.573L621.52 121.274L621.786 122.914L621.973 124.469L622.074 125.912L622.081 127.217L621.987 128.36L621.787 129.319L621.482 130.074L621.072 130.611L620.56 130.921L619.952 131L619.258 130.849L618.487 130.474L617.651 129.888L616.763 129.108L615.835 128.153L614.882 127.046L613.915 125.812L612.946 124.473L611.986 123.056L611.043 121.584L610.125 120.079L609.238 118.56L608.387 117.045L607.575 115.55L606.804 114.087L606.076 112.668L605.39 111.301L604.747 109.991L604.144 108.745L603.581 107.566L603.056 106.455L602.566 105.414L602.11 104.443L601.684 103.542L601.287 102.709L600.916 101.943L600.568 101.243L600.243 100.607L599.936 100.034L599.647 99.5207L599.374 99.0664L599.113 98.6693L598.864 98.3278L598.625 98.0406L598.394 97.8066L598.169 97.6247L597.949 97.4942L597.732 97.4145L597.517 97.3853L597.302 97.4065L597.085 97.4781L596.866 97.6005L596.642 97.7741L596.412 97.9998L596.174 98.2784L595.927 98.6112L595.669 98.9994L595.397 99.4445L595.111 99.9481L594.807 100.512L594.485 101.138L594.141 101.827L593.774 102.582L593.381 103.404L592.96 104.295L592.509 105.255L592.024 106.285L591.505 107.384L590.948 108.553L590.352 109.789L589.715 111.088L589.036 112.447L588.314 113.858L587.551 115.314L586.745 116.805L585.9 118.318L585.018 119.837L584.105 121.346L583.166 122.825L582.207 124.252L581.239 125.605L580.271 126.858L579.315 127.987L578.383 128.967L577.487 129.777L576.642 130.395L575.86 130.804L575.153 130.991L574.531 130.949L574.003 130.676L573.576 130.174L573.254 129.453L573.038 128.526L572.927 127.41L572.918 126.129L573.004 124.707L573.179 123.168L573.433 121.54L573.756 119.847L574.137 118.115L574.567 116.366L575.033 114.621L575.528 112.897L576.04 111.21L576.562 109.571L577.086 107.992L577.605 106.479L578.114 105.038L578.607 103.672L579.081 102.385L579.532 101.176L579.957 100.045L580.354 98.9917L580.722 98.0139L581.059 97.1095L581.364 96.276L581.637 95.5109L581.876 94.8114L582.08 94.1749L582.25 93.5988L582.384 93.0807L582.482 92.6182L582.543 92.2095L582.566 91.8526L582.549 91.5462L582.491 91.2892L582.39 91.0806L582.244 90.9202L582.05 90.8065L581.809 90.7372L581.52 90.7102L581.182 90.7239L580.793 90.7767L580.351 90.8676L579.856 90.9957L579.304 91.16L578.693 91.3599L578.021 91.5948L577.286 91.864L576.483 92.1668L575.612 92.5024L574.669 92.8697L573.653 93.2674L572.561 93.6938L571.392 94.1469L570.146 94.6241L568.824 95.122L567.426 95.6366L565.957 96.1633L564.421 96.6963L562.825 97.229L561.178 97.7539L559.493 98.2625L557.782 98.7455L556.064 99.1929L554.358 99.594L552.684 99.9381L551.068 100.214L549.534 100.412L548.107 100.522L546.814 100.537L545.678 100.449L544.721 100.255L543.963 99.9529L543.418 99.5433L543.095 99.0299L543 98.4187L543.131 97.7183L543.482 96.9388L544.041 96.0923L544.792 95.1916L545.717 94.25L546.793 93.2808L547.996 92.2968L549.303 91.3099L550.689 90.3308L552.132 89.3688L553.608 88.4316L555.099 87.5257L556.588 86.656L558.058 85.8258L559.497 85.0376L560.894 84.2925L562.241 83.5908L563.532 82.9321L564.76 82.3153L565.924 81.7388L567.02 81.2009L568.048 80.6992L569.007 80.2316L569.897 79.7956L570.721 79.3889L571.478 79.009L572.17 78.6535L572.799 78.3202L573.367 78.0068L573.876 77.7112L574.327 77.4313L574.721 77.1651L575.061 76.9108L575.347 76.6665L575.581 76.4305L575.763 76.2011L575.895 75.9766L575.978 75.7556L576.01 75.5364L575.993 75.3174L575.927 75.0971L575.811 74.8739L575.644 74.6463L575.427 74.4125L575.157 74.1711L574.835 73.9201L574.458 73.6579L574.026 73.3826L573.536 73.0922L572.987 72.7847L572.377 72.4579L571.705 72.1098L570.969 71.7379L570.167 71.34L569.298 70.9136L568.361 70.4563L567.355 69.9658L566.28 69.4396L565.138 68.8756L563.93 68.2718L562.659 67.6266L561.329 66.9387L559.947 66.2075L558.52 65.4329L557.059 64.6159L555.575 63.7584L554.083 62.8636L552.599 61.9358L551.144 60.9809L549.737 60.0063L548.403 59.0208L547.164 58.0346L546.044 57.0594L545.069 56.1076L544.26 55.1924L543.638 54.3272L543.219 53.525L543.017 52.7981L543.04 52.1575L543.291 51.6122L543.766 51.1691L544.457 50.8324L545.353 50.6039L546.434 50.4827L547.679 50.4652L549.066 50.5458L550.569 50.7168L552.162 50.9691L553.82 51.2927L555.518 51.6768L557.235 52.1106L558.95 52.5834L560.645 53.0849L562.305 53.6056L563.918 54.1367L565.474 54.6703L566.966 55.1997L568.386 55.7187L569.733 56.2224L571.004 56.7065L572.197 57.1676L573.313 57.6028L574.354 58.0099L575.32 58.387L576.213 58.7328L577.037 59.0462L577.794 59.3261L578.486 59.572L579.116 59.7832L579.686 59.9589L580.199 60.0986L580.658 60.2014L581.063 60.2665L581.418 60.2928L581.722 60.2789L581.979 60.2233L582.187 60.124L582.349 59.9787L582.464 59.7855L582.535 59.5439L582.565 59.2534L582.555 58.9128L582.506 58.5207L582.419 58.0756L582.297 57.5754L582.138 57.018L581.944 56.401L581.716 55.7219L581.455 54.978L581.16 54.1666L580.833 53.285L580.475 52.3308L580.087 51.3017L579.67 50.1959L579.227 49.0119L578.76 47.7493L578.273 46.4086L577.769 44.9913L577.252 43.5007L576.729 41.9416L576.206 40.3209L575.689 38.6478L575.188 36.934L574.712 35.1937L574.269 33.444L573.871 31.7043L573.529 29.9967L573.252 28.3451L573.051 26.775L572.935 25.3126L572.914 23.9837L572.991 22.8133L573.174 21.824L573.462 21.0352L573.856 20.4622L574.352 20.1155L574.945 20L575.626 20.1152L576.386 20.4548L577.212 21.0078L578.093 21.7582L579.015 22.6867L579.965 23.771L580.93 24.9872L581.9 26.3106L582.862 27.7166L583.808 29.1816L584.731 30.6833L585.623 32.2014L586.48 33.7178L587.298 35.2169L588.076 36.6854L588.811 38.1121L589.503 39.4884L590.153 40.8072L590.762 42.0635L591.331 43.2537L591.863 44.3755L592.358 45.4277L592.82 46.4099L593.25 47.3224L593.652 48.1662L594.027 48.9424L594.378 49.6527L594.707 50.2986L595.016 50.882L595.308 51.4046L595.584 51.8681L595.846 52.2742L596.097 52.6245L596.337 52.9203L596.57 53.1627L596.795 53.3528L597.016 53.4915L597.233 53.5792L597.449 53.6164L597.664 53.6033L597.88 53.5397L598.099 53.4254L598.322 53.26L598.551 53.0427L598.787 52.7725L599.033 52.4485L599.289 52.0692L599.559 51.6333L599.843 51.1391L600.143 50.585L600.462 49.9692L600.802 49.2899L601.166 48.5454L601.554 47.7341L601.971 46.8545L602.417 45.9057L602.896 44.887L603.41 43.7984L603.961 42.6406L604.551 41.4155L605.181 40.126L605.853 38.7765L606.568 37.3729L607.325 35.9231L608.124 34.4371L608.963 32.9271L609.839 31.4077L610.747 29.8958L611.683 28.4107L612.639 26.9736L613.606 25.6077L614.575 24.3372L615.534 23.1868L616.471 22.181L617.373 21.3428L618.227 20.6933L619.02 20.25L619.74 20.0265L620.376 20.0314L620.919 20.2679L621.363 20.7337L621.702 21.421L621.935 22.3167L622.062 23.4032L622.087 24.6594L622.015 26.0612L621.854 27.5832L621.612 29.1991L621.3 30.883L620.927 32.6102L620.505 34.3577L620.043 36.1048L619.552 37.8332L619.042 39.5274L618.521 41.1744L617.997 42.7639L617.477 44.288L616.966 45.7408L616.47 47.1184L615.993 48.4185L615.538 49.64L615.109 50.783L614.707 51.8486L614.334 52.8383L613.992 53.7543L613.682 54.5989L613.404 55.3747L613.16 56.0844L612.95 56.7308L612.775 57.3164L612.635 57.8436L612.531 58.3148L612.464 58.732L612.435 59.097L612.445 59.4113L612.497 59.6761L612.591 59.8924L612.73 60.0605L612.916 60.1815L613.149 60.2577L613.431 60.2913L613.761 60.284L614.142 60.2373L614.575 60.1524L615.062 60.0302L615.604 59.8716L616.206 59.6773L616.868 59.4479L617.593 59.1841L618.384 58.8866L619.244 58.5562L620.176 58.1939L621.18 57.801L622.26 57.3789L623.417 56.9299L624.65 56.4564L625.961 55.9616L627.346 55.4493L628.805 54.9242L630.331 54.3918L631.917 53.8586L633.557 53.3319L635.237 52.82L636.944 52.3323L638.662 51.8785L640.372 51.4693L642.052 51.1154L643.679 50.8278L645.229 50.6167L646.674 50.4919L647.99 50.4617L649.153 50.5328L650.139 50.7098L650.93 50.9948L651.51 51.3874L651.868 51.8846L652 52.4807L651.905 53.1676L651.588 53.9352L651.062 54.7719L650.34 55.6649L649.441 56.6009L648.388 57.5665L647.203 58.549L645.911 59.5362L644.536 60.5172L643.101 61.4825L641.628 62.4241L640.138 63.3353L638.648 64.2111L637.174 65.0477L635.73 65.8427L634.325 66.5947L632.969 67.3033L631.67 67.9688L630.431 68.5922L629.257 69.175L628.15 69.719L627.111 70.2262L626.141 70.6991L625.24 71.14L624.406 71.5512L623.638 71.9352L622.936 72.2944L622.297 72.6311L621.719 72.9475L621.201 73.2458L620.741 73.5281L620.338 73.7963L619.99 74.0524L619.695 74.2982L619.453 74.5354L619.262 74.7658L619.122 74.9909L619.032 75.2124L618.992 75.4318L618.989 75.5015Z" fill="#F1CED7" fill-opacity="0.5"/>
<path fill-rule="evenodd" clip-rule="evenodd" d="M937.235 71.4785V71.4785L937.252 71.5256L937.304 71.5738L937.392 71.6242L937.517 71.6778L937.682 71.7361L937.89 71.8003L938.144 71.872L938.449 71.9532L938.811 72.0457L939.235 72.1521L939.73 72.2751L940.303 72.4179L940.962 72.584L941.718 72.7775L942.579 73.003L943.556 73.2654L944.658 73.5699L945.89 73.9218L947.257 74.326L948.759 74.787L950.389 75.3077L952.133 75.8895L953.969 76.5306L955.86 77.2256L957.762 77.9651L959.618 78.7344L961.361 79.514L962.921 80.2799L964.224 81.0047L965.205 81.6596L965.809 82.2165L966 82.651L965.763 82.9445L965.108 83.0863L964.069 83.0741L962.698 82.9149L961.062 82.623L959.235 82.2185L957.29 81.7252L955.299 81.1683L953.32 80.572L951.403 79.9585L949.586 79.3466L947.894 78.7513L946.34 78.184L944.933 77.6525L943.671 77.1617L942.549 76.7141L941.56 76.3102L940.692 75.9492L939.936 75.6295L939.281 75.3488L938.715 75.1047L938.229 74.8946L937.815 74.7161L937.464 74.5671L937.169 74.4458L936.926 74.3505L936.728 74.2803L936.574 74.2345L936.459 74.2129L936.382 74.2162L936.342 74.2453L936.339 74.3016L936.372 74.386L936.439 74.4997L936.542 74.645L936.682 74.8245L936.86 75.042L937.08 75.3018L937.344 75.6094L937.658 75.9708L938.024 76.3933L938.45 76.8849L938.939 77.4544L939.498 78.1114L940.132 78.8658L940.846 79.7274L941.643 80.7053L942.524 81.8067L943.487 83.0363L944.526 84.394L945.631 85.8741L946.783 87.4629L947.958 89.1377L949.125 90.8653L950.245 92.6016L951.276 94.2932L952.171 95.8787L952.887 97.2935L953.383 98.474L953.628 99.3639L953.606 99.9195L953.312 100.115L952.758 99.9436L951.972 99.4207L950.991 98.5794L949.859 97.4678L948.627 96.1433L947.34 94.6675L946.042 93.1008L944.769 91.4981L943.55 89.9066L942.405 88.3641L941.348 86.8987L940.386 85.5296L939.519 84.2682L938.747 83.1195L938.064 82.0838L937.464 81.1577L936.939 80.3356L936.482 79.6103L936.086 78.9741L935.742 78.4192L935.446 77.9378L935.19 77.5229L934.97 77.168L934.781 76.8672L934.619 76.6154L934.48 76.4084L934.362 76.2425L934.262 76.1148L934.178 76.0231L934.108 75.9658L934.05 75.9419L934.004 75.9511L933.969 75.9934L933.942 76.0698L933.925 76.1818L933.916 76.3315L933.914 76.5217L933.921 76.7561L933.934 77.0389L933.954 77.3755L933.981 77.7721L934.014 78.2356L934.052 78.7744L934.096 79.3972L934.145 80.114L934.197 80.9352L934.251 81.8715L934.306 82.9334L934.358 84.1304L934.405 85.4698L934.443 86.956L934.467 88.5879L934.473 90.358L934.455 92.25L934.407 94.2371L934.324 96.2804L934.2 98.3291L934.034 100.32L933.823 102.182L933.568 103.836L933.276 105.208L932.952 106.225L932.608 106.835L932.256 107L931.91 106.711L931.581 105.982L931.283 104.852L931.023 103.38L930.808 101.638L930.641 99.7037L930.521 97.6559L930.445 95.5661L930.408 93.4964L930.405 91.4963L930.428 89.6031L930.473 87.8415L930.532 86.2262L930.601 84.7628L930.675 83.4507L930.75 82.2844L930.825 81.2554L930.896 80.3532L930.962 79.5668L931.022 78.885L931.075 78.2972L931.12 77.7935L931.157 77.365L931.186 77.0039L931.207 76.7036L931.218 76.4585L931.22 76.2641L931.212 76.117L931.193 76.015L931.162 75.9569L931.118 75.9426L931.059 75.9716L930.984 76.0432L930.891 76.1578L930.78 76.3166L930.646 76.5222L930.487 76.7777L930.3 77.0876L930.08 77.457L929.823 77.892L929.523 78.3996L929.174 78.9874L928.768 79.6636L928.3 80.4365L927.76 81.3141L927.14 82.3034L926.435 83.4098L925.637 84.6356L924.743 85.9785L923.752 87.4309L922.667 88.9774L921.498 90.594L920.262 92.2469L918.983 93.8921L917.692 95.4768L916.431 96.9409L915.243 98.2211L914.176 99.2556L913.278 99.9897L912.59 100.382L912.143 100.407L911.957 100.061L912.036 99.3611L912.369 98.3432L912.933 97.0583L913.694 95.5673L914.608 93.9351L915.635 92.225L916.729 90.4946L917.852 88.7925L918.971 87.1573L920.058 85.6168L921.094 84.1893L922.064 82.8847L922.96 81.706L923.778 80.6512L924.517 79.7148L925.179 78.8889L925.767 78.1644L926.287 77.5317L926.744 76.9813L927.142 76.5042L927.487 76.0919L927.783 75.7369L928.035 75.4323L928.247 75.1723L928.422 74.9516L928.564 74.766L928.673 74.6115L928.753 74.4852L928.804 74.3845L928.827 74.3073L928.822 74.2521L928.79 74.2176L928.729 74.203L928.639 74.208L928.517 74.2324L928.362 74.2766L928.169 74.3409L927.936 74.4264L927.658 74.5342L927.329 74.6656L926.943 74.8225L926.494 75.0068L925.973 75.2207L925.372 75.4665L924.679 75.7463L923.886 76.0625L922.981 76.4168L921.955 76.8104L920.798 77.2436L919.502 77.7153L918.065 78.2223L916.488 78.7594L914.778 79.3184L912.952 79.8876L911.038 80.4522L909.074 80.9938L907.111 81.4912L905.211 81.9213L903.444 82.261L901.883 82.4885L900.602 82.5859L899.664 82.5414L899.12 82.3504L899 82.0168L899.309 81.5528L900.03 80.9777L901.122 80.316L902.528 79.5953L904.178 78.8434L905.998 78.0861L907.917 77.3459L909.868 76.6406L911.794 75.983L913.651 75.3812L915.406 74.8393L917.037 74.3577L918.531 73.9347L919.884 73.5664L921.097 73.2482L922.176 72.9747L923.127 72.7407L923.961 72.541L924.688 72.3707L925.318 72.2254L925.86 72.1012L926.323 71.9947L926.716 71.9028L927.044 71.8229L927.315 71.7528L927.532 71.6905L927.699 71.6341L927.82 71.5822L927.895 71.5333L927.925 71.486L927.91 71.4389L927.849 71.3906L927.743 71.3398L927.591 71.2851L927.39 71.2248L927.136 71.1574L926.827 71.0808L926.456 70.9931L926.016 70.8915L925.499 70.7733L924.899 70.6351L924.204 70.4732L923.405 70.2834L922.492 70.0608L921.455 69.8005L920.286 69.4972L918.977 69.1454L917.528 68.7402L915.939 68.2776L914.222 67.755L912.395 67.172L910.486 66.5315L908.538 65.8402L906.602 65.1095L904.743 64.3554L903.03 63.5991L901.539 62.8655L900.34 62.182L899.496 61.5765L899.052 61.0747L899.035 60.6978L899.446 60.4606L900.263 60.3695L901.441 60.4227L902.921 60.6104L904.63 60.9166L906.496 61.3204L908.446 61.7989L910.415 62.3289L912.35 62.8883L914.208 63.4578L915.957 64.0214L917.578 64.5665L919.06 65.0839L920.4 65.5672L921.601 66.0129L922.668 66.4191L923.61 66.7859L924.438 67.114L925.161 67.4052L925.791 67.6616L926.337 67.8854L926.808 68.0788L927.213 68.2443L927.559 68.3836L927.852 68.4988L928.099 68.5912L928.304 68.6622L928.471 68.7127L928.604 68.7433L928.704 68.7545L928.774 68.7462L928.815 68.7182L928.828 68.6696L928.814 68.5996L928.772 68.5065L928.702 68.3886L928.602 68.2435L928.471 68.0681L928.307 67.8591L928.107 67.6121L927.868 67.3224L927.586 66.9841L927.257 66.5908L926.877 66.1352L926.439 65.6091L925.94 65.0037L925.374 64.3095L924.736 63.5169L924.021 62.6166L923.229 61.6003L922.358 60.4614L921.411 59.1968L920.395 57.8078L919.322 56.3018L918.21 54.6942L917.085 53.0097L915.978 51.2835L914.925 49.5611L913.97 47.8974L913.156 46.3543L912.526 44.9969L912.116 43.8878L911.954 43.0819L912.055 42.6205L912.42 42.527L913.034 42.8038L913.87 43.4327L914.887 44.377L916.042 45.5854L917.285 46.9978L918.571 48.5508L919.858 50.1829L921.111 51.8386L922.303 53.4709L923.416 55.0428L924.438 56.5272L925.363 57.9062L926.191 59.1697L926.925 60.314L927.571 61.3402L928.136 62.2527L928.626 63.0581L929.051 63.7642L929.418 64.3793L929.733 64.9115L930.003 65.3689L930.234 65.7585L930.431 66.0867L930.598 66.3591L930.739 66.5801L930.858 66.7536L930.956 66.882L931.037 66.9672L931.101 67.0099L931.15 67.0095L931.185 66.9652L931.207 66.8773L931.219 66.7448L931.22 66.5658L931.212 66.3372L931.194 66.055L931.167 65.714L931.133 65.3078L931.09 64.829L931.039 64.269L930.981 63.6182L930.917 62.8664L930.848 62.0023L930.774 61.0148L930.699 59.8932L930.624 58.6284L930.553 57.2136L930.49 55.6463L930.441 53.9302L930.41 52.0767L930.404 50.1073L930.429 48.055L930.492 45.9654L930.598 43.8968L930.75 41.9183L930.95 40.1064L931.195 38.54L931.482 37.2941L931.802 36.4321L932.145 36L932.496 36.0205L932.844 36.4911L933.176 37.3839L933.479 38.6495L933.746 40.222L933.971 42.0262L934.152 43.9842L934.289 46.0218L934.385 48.073L934.443 50.0828L934.47 52.0085L934.471 53.8197L934.452 55.4968L934.418 57.0298L934.374 58.4157L934.323 59.6574L934.269 60.7614L934.214 61.7366L934.161 62.5933L934.111 63.3422L934.066 63.9939L934.025 64.5583L933.99 65.0449L933.962 65.462L933.939 65.817L933.924 66.1164L933.916 66.3656L933.915 66.5695L933.921 66.7317L933.936 66.8554L933.959 66.943L933.992 66.9961L934.035 67.0158L934.088 67.0024L934.154 66.9558L934.234 66.8752L934.328 66.7592L934.44 66.6058L934.572 66.4122L934.727 66.1752L934.907 65.8905L935.116 65.5534L935.36 65.1582L935.643 64.6988L935.971 64.1681L936.35 63.5587L936.786 62.8626L937.289 62.0721L937.864 61.1799L938.52 60.1796L939.263 59.0671L940.099 57.8413L941.031 56.5056L942.059 55.0691L943.177 53.5486L944.374 51.9691L945.632 50.3653L946.926 48.7814L948.22 47.2703L949.475 45.8909L950.644 44.7049L951.678 43.7718L952.531 43.143L953.163 42.8573L953.541 42.9355L953.651 43.3782L953.489 44.1656L953.07 45.2592L952.421 46.606L951.578 48.1442L950.585 49.8089L949.489 51.5373L948.332 53.2729L947.156 54.9686L945.994 56.5877L944.872 58.1044L943.81 59.502L942.822 60.7727L941.914 61.9146L941.091 62.9312L940.351 63.8289L939.692 64.6164L939.109 65.3033L938.598 65.8997L938.153 66.4151L937.768 66.8586L937.439 67.2387L937.159 67.5627L936.926 67.8371L936.734 68.0676L936.583 68.2588L936.468 68.4146L936.389 68.5381L936.346 68.6316L936.337 68.6968L936.365 68.7344L936.43 68.7458L936.533 68.732L936.675 68.694L936.858 68.6315L937.086 68.5444L937.364 68.4315L937.696 68.2915L938.09 68.1226L938.552 67.9228L939.091 67.6898L939.717 67.421L940.44 67.114L941.271 66.7664L942.22 66.3763L943.299 65.9426L944.515 65.4654L945.876 64.9465L947.383 64.3899L949.033 63.8025L950.812 63.1944L952.701 62.5795L954.664 61.9755L956.658 61.4035L958.625 60.8872L960.497 60.4518L962.203 60.1216L963.666 59.9182L964.817 59.8581L965.599 59.9506L965.971 60.1965L965.916 60.5878L965.441 61.1082L964.575 61.7348L963.367 62.4404L961.881 63.1963L960.188 63.9744L958.361 64.7493L956.467 65.5001L954.567 66.2105L952.71 66.8696L950.933 67.4706L949.265 68.0108L947.721 68.4905L946.311 68.9124L945.036 69.2804L943.893 69.5994L942.878 69.8746L941.98 70.1114L941.192 70.3146L940.503 70.489L939.903 70.6387L939.385 70.7677L938.939 70.879L938.558 70.9757L938.235 71.0602L937.966 71.1348L937.744 71.2012L937.565 71.2612L937.428 71.3162L937.328 71.3674L937.265 71.4162L937.237 71.4635L937.235 71.4785Z" fill="#F1CED7" fill-opacity="0.5"/>
<path fill-rule="evenodd" clip-rule="evenodd" d="M810.839 33.5012L809.678 33.6519L808.704 33.7826L807.887 33.8982L807.201 34.0025L806.627 34.0985L806.149 34.1887L805.753 34.2751L805.43 34.3595L805.171 34.4434L804.969 34.528L804.819 34.6144L804.716 34.7038L804.657 34.7972L804.638 34.8954L804.657 34.9993L804.711 35.1099L804.8 35.228L804.921 35.3544L805.074 35.49L805.258 35.6356L805.47 35.792L805.712 35.96L805.981 36.1403L806.276 36.3336L806.596 36.5405L806.94 36.7616L807.306 36.9971L807.692 37.2474L808.096 37.5126L808.515 37.7924L808.946 38.0865L809.385 38.3943L809.829 38.7148L810.274 39.047L810.715 39.3891L811.147 39.7396L811.565 40.0961L811.965 40.4564L812.341 40.8178L812.689 41.1775L813.003 41.5326L813.28 41.8802L813.515 42.2171L813.707 42.5407L813.851 42.8481L813.948 43.1369L813.995 43.4051L813.994 43.6508L813.944 43.8728L813.848 44.0701L813.708 44.2425L813.528 44.3899L813.31 44.5128L813.059 44.6122L812.779 44.6894L812.474 44.746L812.149 44.7837L811.809 44.8048L811.457 44.8113L811.098 44.8056L810.736 44.7901L810.374 44.7671L810.016 44.7388L809.664 44.7076L809.321 44.6755L808.988 44.6447L808.669 44.6169L808.364 44.594L808.075 44.5777L807.802 44.5694L807.547 44.5705L807.309 44.5824L807.089 44.6061L806.888 44.6428L806.704 44.6935L806.539 44.7589L806.392 44.84L806.262 44.9374L806.15 45.0517L806.054 45.1834L805.973 45.3331L805.908 45.5011L805.858 45.6877L805.821 45.8929L805.797 46.1169L805.784 46.3594L805.783 46.6202L805.79 46.8988L805.805 47.1945L805.827 47.5062L805.854 47.8328L805.884 48.1727L805.915 48.5241L805.946 48.8848L805.973 49.2523L805.996 49.6235L806.012 49.9953L806.019 50.364L806.013 50.7257L805.994 51.0762L805.958 51.411L805.905 51.7256L805.831 52.0153L805.736 52.2757L805.618 52.5022L805.477 52.6907L805.311 52.8376L805.12 52.9397L804.906 52.9945L804.668 53L804.409 52.9554L804.129 52.8604L803.831 52.7158L803.517 52.5232L803.189 52.2848L802.851 52.004L802.506 51.6843L802.156 51.3302L801.804 50.9463L801.452 50.5377L801.105 50.1095L800.763 49.6669L800.429 49.215L800.104 48.7587L799.791 48.3026L799.49 47.8511L799.202 47.4081L798.929 46.9771L798.669 46.5614L798.424 46.1636L798.193 45.7863L797.977 45.4313L797.774 45.1006L797.585 44.7955L797.408 44.5174L797.244 44.2674L797.09 44.0466L796.948 43.8559L796.815 43.6964L796.691 43.5691L796.575 43.4753L796.467 43.4165L796.365 43.3942L796.269 43.4107L796.178 43.4683L796.091 43.5702L796.006 43.7202L795.924 43.9228L795.842 44.1836L795.76 44.5097L795.676 44.9095L795.588 45.3935L795.495 45.9745L795.394 46.6686L795.283 47.4957L795.157 48.4809L795.012 49.6558L794.863 48.6544L794.735 47.6413L794.621 46.7908L794.519 46.077L794.424 45.4791L794.336 44.9807L794.252 44.5682L794.169 44.231L794.088 43.9602L794.005 43.7488L793.921 43.5908L793.834 43.4815L793.744 43.417L793.649 43.3942L793.548 43.4104L793.441 43.4636L793.326 43.5519L793.204 43.6739L793.072 43.8284L792.931 44.0142L792.78 44.2303L792.617 44.4757L792.442 44.7494L792.255 45.0502L792.054 45.377L791.84 45.7282L791.612 46.1021L791.369 46.4968L791.112 46.9098L790.84 47.3386L790.555 47.7799L790.256 48.2303L789.945 48.6859L789.622 49.1425L789.289 49.5955L788.949 50.0399L788.602 50.4707L788.251 50.8828L787.899 51.2709L787.548 51.6301L787.201 51.9556L786.862 52.2429L786.533 52.4882L786.216 52.6883L785.916 52.8407L785.633 52.9436L785.37 52.9963L785.129 52.9987L784.91 52.9517L784.716 52.857L784.546 52.717L784.401 52.5348L784.279 52.3141L784.18 52.0589L784.104 51.7735L784.047 51.4626L784.009 51.1307L783.987 50.7824L783.98 50.4222L783.984 50.0543L783.999 49.6828L784.021 49.3112L784.048 48.943L784.078 48.581L784.109 48.228L784.14 47.8861L784.167 47.5573L784.19 47.2431L784.206 46.9448L784.215 46.6634L784.215 46.3998L784.204 46.1543L784.182 45.9273L784.147 45.7191L784.099 45.5296L784.036 45.3587L783.959 45.2061L783.865 45.0715L783.755 44.9544L783.628 44.8544L783.483 44.7708L783.321 44.7029L783.141 44.65L782.942 44.6111L782.726 44.5853L782.491 44.5716L782.238 44.5689L781.968 44.5758L781.681 44.5909L781.379 44.6129L781.062 44.64L780.731 44.6705L780.39 44.7025L780.039 44.734L779.681 44.7629L779.32 44.7869L778.958 44.8037L778.598 44.8111L778.245 44.8067L777.902 44.7881L777.575 44.7532L777.267 44.6998L776.982 44.626L776.726 44.5302L776.503 44.4111L776.316 44.2676L776.169 44.0992L776.066 43.9059L776.009 43.6878L776 43.4457L776.04 43.1811L776.128 42.8954L776.265 42.5908L776.449 42.2696L776.678 41.9346L776.949 41.5886L777.257 41.2345L777.6 40.8753L777.972 40.5139L778.368 40.1533L778.784 39.796L779.214 39.4445L779.654 39.1008L780.098 38.767L780.543 38.4445L780.983 38.1346L781.416 37.8383L781.837 37.5561L782.243 37.2887L782.632 37.036L783.001 36.7981L783.349 36.5748L783.673 36.3656L783.972 36.1702L784.245 35.9878L784.491 35.8179L784.709 35.6597L784.897 35.5125L785.055 35.3753L785.181 35.2475L785.275 35.1282L785.335 35.0164L785.36 34.9115L785.347 34.8125L785.294 34.7184L785.198 34.6284L785.056 34.5416L784.863 34.4568L784.614 34.3729L784.301 34.2887L783.918 34.2026L783.453 34.1132L782.895 34.0182L782.228 33.9155L781.434 33.8019L780.487 33.6739L779.358 33.5268L780.149 33.3731L781.15 33.2396L781.99 33.1218L782.695 33.016L783.286 32.9188L783.779 32.8279L784.187 32.7409L784.521 32.6563L784.79 32.5724L785 32.4881L785.158 32.402L785.268 32.3131L785.335 32.2205L785.36 32.1231L785.347 32.0201L785.298 31.9107L785.215 31.7938L785.098 31.6688L784.95 31.5347L784.772 31.3908L784.564 31.2361L784.327 31.07L784.062 30.8917L783.771 30.7005L783.455 30.4958L783.114 30.2771L782.752 30.0438L782.369 29.7959L781.968 29.5331L781.551 29.2556L781.122 28.9638L780.684 28.6581L780.24 28.3395L779.795 28.0091L779.353 27.6684L778.919 27.3192L778.498 26.9635L778.095 26.6036L777.715 26.2422L777.363 25.882L777.043 25.526L776.76 25.177L776.517 24.8382L776.319 24.5123L776.167 24.2022L776.062 23.9102L776.007 23.6386L776.001 23.3892L776.043 23.1634L776.132 22.9621L776.265 22.7858L776.439 22.6344L776.651 22.5076L776.897 22.4045L777.173 22.3239L777.474 22.2642L777.796 22.2236L778.134 22.2L778.485 22.1913L778.843 22.1952L779.204 22.2093L779.567 22.2313L779.926 22.2589L780.279 22.2898L780.624 22.3218L780.958 22.353L781.279 22.3814L781.587 22.4052L781.878 22.4227L782.154 22.4324L782.412 22.4328L782.653 22.4228L782.875 22.401L783.08 22.3664L783.266 22.318L783.434 22.255L783.584 22.1764L783.716 22.0817L783.832 21.9702L783.93 21.8412L784.013 21.6944L784.081 21.5293L784.133 21.3457L784.172 21.1435L784.198 20.9225L784.212 20.6829L784.216 20.425L784.21 20.1492L784.196 19.8562L784.175 19.5469L784.149 19.2226L784.119 18.8847L784.088 18.535L784.057 18.1756L784.029 17.8091L784.005 17.4382L783.988 17.0663L783.98 16.6968L783.983 16.3337L784 15.9812L784.033 15.6436L784.083 15.3254L784.154 15.0314L784.245 14.7661L784.359 14.5339L784.497 14.3391L784.659 14.1853L784.846 14.0759L785.057 14.0135L785.291 14L785.547 14.0366L785.823 14.1236L786.119 14.2604L786.431 14.4455L786.756 14.6767L787.092 14.9511L787.437 15.2648L787.787 15.6137L788.139 15.9932L788.49 16.3982L788.839 16.8236L789.182 17.2643L789.517 17.715L789.843 18.171L790.158 18.6274L790.461 19.0799L790.751 19.5245L791.027 19.9576L791.289 20.376L791.536 20.7768L791.769 21.1575L791.988 21.5162L792.193 21.8509L792.384 22.1602L792.563 22.4426L792.729 22.6972L792.884 22.9227L793.028 23.1183L793.163 23.2828L793.288 23.4153L793.405 23.5145L793.514 23.579L793.617 23.6072L793.714 23.5971L793.806 23.5462L793.894 23.4516L793.979 23.3096L794.062 23.1157L794.143 22.8645L794.225 22.5494L794.309 22.162L794.396 21.6922L794.488 21.1276L794.587 20.4528L794.697 19.6484L794.82 18.6903L794.962 17.548L795.113 18.1696L795.244 19.2115L795.36 20.086L795.464 20.82L795.559 21.4352L795.648 21.9485L795.733 22.3738L795.816 22.7224L795.898 23.0032L795.98 23.2237L796.063 23.3899L796.15 23.5067L796.24 23.578L796.334 23.6073L796.434 23.5971L796.54 23.5497L796.653 23.4669L796.774 23.3502L796.904 23.2008L797.044 23.0199L797.194 22.8086L797.355 22.5678L797.527 22.2985L797.713 22.0019L797.911 21.6792L798.123 21.3318L798.349 20.9613L798.589 20.5698L798.844 20.1595L799.114 19.7331L799.397 19.2936L799.694 18.8443L800.003 18.3893L800.324 17.9325L800.655 17.4787L800.995 17.0326L801.341 16.5992L801.691 16.1838L802.044 15.7915L802.395 15.4274L802.742 15.0963L803.083 14.8026L803.414 14.5504L803.732 14.3429L804.036 14.1828L804.322 14.0719L804.588 14.0112L804.833 14.0008L805.055 14.0401L805.253 14.1273L805.426 14.2603L805.576 14.4359L805.701 14.6508L805.804 14.9008L805.884 15.1817L805.943 15.4888L805.984 15.8177L806.009 16.1637L806.018 16.5223L806.015 16.8892L806.002 17.2604L805.981 17.6322L805.955 18.0012L805.925 18.3643L805.894 18.7189L805.863 19.0627L805.835 19.3938L805.812 19.7104L805.794 20.0113L805.784 20.2954L805.783 20.5619L805.792 20.8103L805.812 21.0402L805.845 21.2514L805.891 21.4439L805.951 21.6178L806.026 21.7733L806.117 21.9108L806.225 22.0306L806.349 22.1332L806.491 22.2194L806.65 22.2898L806.827 22.345L807.023 22.3861L807.237 22.4139L807.469 22.4294L807.719 22.4338L807.986 22.4284L808.27 22.4144L808.57 22.3934L808.885 22.367L809.213 22.337L809.553 22.3051L809.903 22.2734L810.259 22.2439L810.621 22.219L810.983 22.2008L811.343 22.1918L811.698 22.1942L812.042 22.2103L812.372 22.2425L812.684 22.2929L812.973 22.3633L813.233 22.4555L813.462 22.5708L813.655 22.7104L813.808 22.8747L813.919 23.0641L813.983 23.2783L814 23.5166L813.968 23.7778L813.887 24.0602L813.758 24.362L813.581 24.6807L813.359 25.0137L813.095 25.3582L812.793 25.7112L812.455 26.0698L812.088 26.431L811.695 26.7919L811.282 27.1499L810.853 27.5025L810.415 27.8475L809.971 28.183L809.526 28.5074L809.085 28.8194L808.651 29.1179L808.228 29.4024L807.819 29.6722L807.427 29.9272L807.054 30.1674L806.703 30.3931L806.375 30.6045L806.072 30.802L805.794 30.9864L805.544 31.1583L805.322 31.3183L805.129 31.4672L804.967 31.6059L804.835 31.7352L804.736 31.8558L804.67 31.9687L804.64 32.0747L804.647 32.1746L804.693 32.2694L804.782 32.3599L804.916 32.4472L805.101 32.5323L805.341 32.6162L805.643 32.7003L806.014 32.7859L806.465 32.8747L807.007 32.9686L807.656 33.07L808.428 33.1816L809.349 33.307L810.446 33.4507L810.839 33.5012Z" fill="#F1CED7" fill-opacity="0.5"/>
<path fill-rule="evenodd" clip-rule="evenodd" d="M289.964 33.5057V33.5057L289.985 33.6235L290.046 33.7427L290.149 33.8644L290.293 33.99L290.478 34.1208L290.706 34.2581L290.976 34.4034L291.287 34.5578L291.639 34.7226L292.031 34.8991L292.46 35.0882L292.921 35.2906L293.409 35.5066L293.916 35.736L294.433 35.9778L294.944 36.2303L295.437 36.4908L295.892 36.7553L296.292 37.0192L296.618 37.277L296.853 37.5225L296.982 37.7497L296.998 37.9532L296.897 38.1286L296.683 38.273L296.364 38.3854L295.956 38.4663L295.477 38.518L294.945 38.5439L294.379 38.5485L293.798 38.5363L293.217 38.5121L292.649 38.4803L292.105 38.4452L291.592 38.4103L291.116 38.379L290.681 38.3538L290.289 38.3371L289.941 38.3312L289.639 38.3378L289.383 38.3587L289.173 38.3956L289.01 38.4505L288.894 38.5253L288.825 38.6223L288.806 38.7435L288.832 38.8897L288.903 39.0615L289.016 39.2597L289.169 39.4851L289.361 39.7387L289.591 40.0212L289.857 40.333L290.155 40.6742L290.482 41.0441L290.834 41.441L291.204 41.8621L291.583 42.303L291.963 42.7575L292.33 43.2175L292.672 43.6728L292.973 44.1117L293.218 44.5212L293.392 44.888L293.485 45.1996L293.486 45.4455L293.393 45.618L293.207 45.7137L292.933 45.7332L292.583 45.6811L292.17 45.5655L291.71 45.3968L291.219 45.1868L290.711 44.9473L290.2 44.6899L289.697 44.4249L289.211 44.1611L288.749 43.906L288.314 43.6653L287.911 43.4436L287.54 43.2444L287.203 43.0702L286.9 42.9227L286.629 42.8033L286.39 42.713L286.182 42.6525L286.004 42.6224L285.854 42.6234L285.732 42.6559L285.636 42.7208L285.565 42.8187L285.518 42.9506L285.495 43.1175L285.495 43.3202L285.517 43.5601L285.559 43.8379L285.621 44.1546L285.702 44.5107L285.801 44.9061L285.914 45.3403L286.04 45.8113L286.176 46.316L286.317 46.8495L286.459 47.4048L286.595 47.9724L286.718 48.5401L286.821 49.0934L286.897 49.6154L286.936 50.0879L286.932 50.4926L286.88 50.8124L286.775 51.0335L286.618 51.1465L286.409 51.1477L286.155 51.0396L285.863 50.8305L285.541 50.5334L285.199 50.1644L284.845 49.7415L284.489 49.2827L284.138 48.8049L283.797 48.323L283.471 47.85L283.163 47.3959L282.874 46.9689L282.606 46.5751L282.359 46.2189L282.132 45.9035L281.925 45.6311L281.736 45.4034L281.565 45.2219L281.409 45.0877L281.269 45.0025L281.143 44.968L281.03 44.9866L280.928 45.0592L280.835 45.1841L280.75 45.3601L280.671 45.5862L280.596 45.8619L280.524 46.1863L280.453 46.5586L280.381 46.9773L280.306 47.44L280.228 47.943L280.144 48.481L280.052 49.0466L279.951 49.6299L279.84 50.2183L279.716 50.7965L279.58 51.3465L279.43 51.8487L279.269 52.2827L279.096 52.6291L278.915 52.8713L278.728 52.997L278.539 53L278.35 52.8807L278.166 52.6461L277.989 52.309L277.822 51.8862L277.667 51.3972L277.523 50.862L277.391 50.2998L277.271 49.7277L277.162 49.1607L277.061 48.6105L276.969 48.0866L276.882 47.5958L276.8 47.1429L276.721 46.7309L276.644 46.3618L276.567 46.0363L276.488 45.7548L276.407 45.517L276.323 45.3225L276.233 45.1706L276.137 45.0609L276.034 44.9927L275.923 44.9657L275.802 44.9796L275.67 45.0342L275.526 45.1295L275.368 45.2654L275.195 45.442L275.006 45.659L274.8 45.9162L274.575 46.2128L274.331 46.5473L274.067 46.9175L273.783 47.32L273.479 47.7497L273.157 48.1999L272.82 48.6617L272.47 49.1238L272.115 49.5725L271.759 49.9921L271.412 50.3653L271.082 50.6746L270.78 50.903L270.513 51.0362L270.291 51.0639L270.119 50.9809L270.002 50.7884L269.939 50.4932L269.927 50.1074L269.963 49.6468L270.039 49.1297L270.147 48.5744L270.279 47.9988L270.427 47.4188L270.582 46.8476L270.738 46.2961L270.889 45.7727L271.032 45.2831L271.161 44.8316L271.273 44.4207L271.367 44.0517L271.439 43.7255L271.489 43.442L271.514 43.2013L271.513 43.0031L271.483 42.8476L271.423 42.735L271.33 42.666L271.204 42.6392L271.043 42.652L270.848 42.7023L270.618 42.788L270.353 42.9076L270.053 43.0592L269.717 43.2411L269.345 43.4507L268.938 43.685L268.5 43.9403L268.031 44.2114L267.539 44.492L267.029 44.7742L266.511 45.0485L265.996 45.3041L265.498 45.5289L265.033 45.7105L264.615 45.8369L264.26 45.8977L263.983 45.8847L263.792 45.7938L263.694 45.6247L263.689 45.3816L263.774 45.0724L263.938 44.708L264.171 44.3012L264.457 43.8654L264.783 43.4135L265.133 42.957L265.494 42.5059L265.856 42.0681L266.209 41.6495L266.545 41.2543L266.859 40.8851L267.145 40.5435L267.402 40.23L267.627 39.9443L267.818 39.6857L267.975 39.4533L268.096 39.2459L268.183 39.0621L268.234 38.9007L268.249 38.7603L268.228 38.6397L268.17 38.5377L268.075 38.4531L267.942 38.3848L267.771 38.3318L267.559 38.293L267.308 38.2674L267.015 38.2537L266.681 38.2507L266.305 38.257L265.889 38.271L265.434 38.2906L264.942 38.3136L264.419 38.3372L263.87 38.3582L263.306 38.373L262.737 38.3775L262.178 38.3674L261.645 38.3383L261.157 38.2861L260.734 38.2072L260.392 38.0991L260.15 37.9606L260.018 37.7923L260.002 37.5963L260.103 37.3763L260.313 37.1374L260.622 36.8853L261.013 36.6257L261.467 36.3645L261.965 36.1064L262.49 35.8556L263.024 35.615L263.552 35.3866L264.064 35.1716L264.55 34.9704L265.002 34.7826L265.416 34.6077L265.788 34.4447L266.117 34.2924L266.399 34.1494L266.634 34.0144L266.821 33.8859L266.959 33.7625L267.047 33.6425L267.082 33.5244L267.064 33.4066L266.992 33.2874L266.87 33.1652L266.699 33.0385L266.479 32.9058L266.211 32.7655L265.898 32.6163L265.539 32.4568L265.138 32.2858L264.698 32.1023L264.222 31.9054L263.718 31.6947L263.193 31.4705L262.66 31.2337L262.13 30.9858L261.622 30.7297L261.151 30.4689L260.738 30.2083L260.402 29.9531L260.158 29.7094L260.022 29.4828L260 29.2787L260.095 29.1012L260.304 28.9531L260.615 28.8354L261.014 28.7474L261.484 28.687L262.004 28.651L262.557 28.6353L263.124 28.6357L263.692 28.6476L264.246 28.6671L264.778 28.6902L265.281 28.7137L265.748 28.7347L266.177 28.7506L266.566 28.7596L266.913 28.7598L267.219 28.7496L267.483 28.7279L267.708 28.6934L267.892 28.6451L268.037 28.5818L268.144 28.5025L268.214 28.4061L268.247 28.2916L268.243 28.1576L268.203 28.0031L268.128 27.8265L268.017 27.6268L267.871 27.4025L267.691 27.1524L267.477 26.8754L267.23 26.5708L266.953 26.2381L266.648 25.8776L266.318 25.4905L265.97 25.079L265.61 24.6467L265.247 24.1991L264.892 23.7433L264.557 23.2888L264.257 22.8465L264.006 22.429L263.818 22.0497L263.707 21.7216L263.683 21.4564L263.751 21.2631L263.912 21.1471L264.163 21.1096L264.494 21.1475L264.894 21.2541L265.346 21.4194L265.835 21.6318L266.346 21.8789L266.864 22.1485L267.378 22.4292L267.877 22.7113L268.353 22.9862L268.802 23.2471L269.219 23.4886L269.602 23.7064L269.949 23.8974L270.261 24.0589L270.537 24.1889L270.778 24.2856L270.984 24.3473L271.156 24.3723L271.294 24.3584L271.397 24.3031L271.468 24.2043L271.507 24.0625L271.517 23.8779L271.5 23.6507L271.458 23.3809L271.392 23.0682L271.305 22.7128L271.198 22.3152L271.074 21.8763L270.936 21.3986L270.787 20.8853L270.632 20.342L270.476 19.7761L270.325 19.1975L270.187 18.6189L270.071 18.0553L269.983 17.524L269.934 17.0434L269.93 16.632L269.976 16.3064L270.076 16.0801L270.231 15.9619L270.437 15.9545L270.69 16.055L270.982 16.2545L271.305 16.5398L271.647 16.8946L272.001 17.3013L272.357 17.7425L272.709 18.2019L273.051 18.6651L273.378 19.1201L273.688 19.5572L273.979 19.969L274.249 20.3499L274.5 20.6961L274.731 21.0049L274.943 21.2748L275.137 21.5047L275.314 21.6941L275.477 21.843L275.625 21.9512L275.761 22.0188L275.886 22.0457L276 22.0317L276.105 21.9767L276.203 21.8803L276.295 21.7419L276.381 21.561L276.463 21.337L276.542 21.0695L276.619 20.7581L276.696 20.4028L276.775 20.0043L276.856 19.5641L276.94 19.0849L277.031 18.5709L277.129 18.0283L277.235 17.4655L277.352 16.8935L277.48 16.3264L277.619 15.7806L277.771 15.2747L277.935 14.8287L278.109 14.4623L278.291 14.1934L278.478 14.0363L278.668 14L278.856 14.087L279.04 14.2931L279.215 14.608L279.38 15.0161L279.534 15.4988L279.674 16.0357L279.802 16.607L279.917 17.1939L280.021 17.7804L280.116 18.3528L280.202 18.9006L280.282 19.4154L280.357 19.8913L280.43 20.3243L280.501 20.7116L280.573 21.0514L280.647 21.3427L280.725 21.5847L280.808 21.7767L280.897 21.9181L280.996 22.0075L281.106 22.0434L281.228 22.0255L281.363 21.9562L281.513 21.8375L281.68 21.6709L281.863 21.4578L282.064 21.1995L282.285 20.8975L282.525 20.554L282.787 20.1717L283.069 19.7548L283.371 19.3086L283.691 18.8405L284.028 18.3602L284.377 17.8796L284.732 17.413L285.087 16.9767L285.434 16.5886L285.763 16.2667L286.066 16.0279L286.333 15.8865L286.557 15.8524L286.731 15.9299L286.852 16.1173L286.921 16.407L286.94 16.7864L286.914 17.2393L286.849 17.7475L286.754 18.2927L286.636 18.8575L286.503 19.4266L286.362 19.987L286.221 20.5283L286.083 21.0428L285.953 21.525L285.835 21.9711L285.732 22.379L285.645 22.7476L285.577 23.0769L285.528 23.367L285.5 23.6188L285.493 23.8333L285.509 24.0115L285.548 24.1544L285.611 24.263L285.699 24.3383L285.812 24.3811L285.953 24.392L286.122 24.3718L286.321 24.3209L286.55 24.24L286.81 24.1298L287.103 23.9912L287.429 23.8253L287.789 23.6338L288.182 23.419L288.607 23.1839L289.061 22.9328L289.54 22.671L290.039 22.4055L290.548 22.1446L291.058 21.8983L291.556 21.6776L292.028 21.4944L292.457 21.3607L292.829 21.2873L293.128 21.2833L293.344 21.3545L293.467 21.5028L293.495 21.7259L293.431 22.0176L293.282 22.3681L293.058 22.7654L292.773 23.1964L292.443 23.6479L292.082 24.1075L291.705 24.5648L291.324 25.0107L290.95 25.4387L290.592 25.8437L290.256 26.2224L289.948 26.5729L289.672 26.8941L289.431 27.1859L289.226 27.4486L289.06 27.6829L288.934 27.8897L288.85 28.0698L288.809 28.224L288.814 28.3532L288.867 28.4577L288.968 28.5393L289.116 28.6003L289.311 28.6428L289.553 28.6686L289.84 28.6796L290.173 28.6774L290.551 28.664L290.973 28.6413L291.436 28.6116L291.938 28.5775L292.473 28.5421L293.034 28.5088L293.612 28.4817L294.195 28.4652L294.767 28.4639L295.312 28.4826L295.81 28.5256L296.243 28.5969L296.592 28.6991L296.841 28.8333L296.979 28.9991L297 29.194L296.906 29.4143L296.704 29.6546L296.405 29.9091L296.027 30.1717L295.587 30.4366L295.104 30.6988L294.597 30.9542L294.08 31.1997L293.569 31.4331L293.074 31.6535L292.603 31.8602L292.164 32.0534L291.76 32.2338L291.395 32.4023L291.07 32.5599L290.787 32.7079L290.546 32.8476L290.347 32.9804L290.19 33.1075L290.074 33.2303L290 33.3501L289.966 33.4682L289.964 33.5057Z" fill="#F1CED7" fill-opacity="0.5"/>
</g>
<defs>
<clipPath id="clip0_40586_297">
<rect width="1030" height="72" fill="white"/>
</clipPath>
</defs>
</svg>
