<svg width="58" height="58" fill="none" xmlns="http://www.w3.org/2000/svg"><path fill-rule="evenodd" clip-rule="evenodd" d="m49.506 8.494.191.218.165.244.136.269.109.292.08.314.053.335.026.354-.002.372-.027.386-.053.4-.076.412-.099.422-.12.43-.14.434-.159.44-.175.442-.19.443-.203.442-.215.44-.225.436-.234.431-.24.425-.245.419-.248.41-.25.402-.252.393-.251.382-.25.373-.245.362-.242.35-.237.34-.231.329-.224.317-.216.306-.208.295-.199.284-.189.273-.178.262-.167.252-.156.242-.144.232-.132.223-.118.213-.105.205-.091.196-.077.188-.061.18-.046.174-.03.166-.013.16.004.154.022.148.041.143.061.137.082.134.104.13.127.125.15.123.178.12.205.117.235.117.267.115.302.115.338.115.38.115.422.118.472.12.524.124.583.128.647.134.72.142.798.15.888.161.988.174 1.102.19 1.23.208 1.375.231 1.542.257.13.282-1.556.26-1.388.232-1.24.21-1.111.191-.997.175-.896.163-.805.15-.725.143-.653.134-.587.13-.53.123-.475.12-.427.118-.382.116-.342.115-.304.115-.27.115-.237.116-.207.118-.18.12-.153.122-.129.125-.105.13-.084.133-.063.137-.042.142-.024.148-.005.153.011.16.029.165.045.173.06.18.075.188.09.195.104.204.117.213.13.222.144.231.155.241.166.251.178.262.188.272.198.283.207.294.216.305.223.316.23.328.237.339.241.35.246.36.25.372.25.382.251.392.251.401.249.41.245.418.24.425.234.43.226.437.216.439.204.442.192.443.176.442.16.44.142.435.122.43.1.422.078.413.055.401.03.388.003.373-.024.355-.05.337-.078.316-.107.294-.134.27-.162.247-.19.22-.216.194-.242.166-.267.139-.29.11-.313.084-.333.055-.353.027-.37.001-.385-.025-.4-.05-.41-.075-.421-.098-.43-.118-.434-.139-.44-.157-.441-.174-.443-.189-.442-.202-.44-.214-.437-.225-.431-.232-.426-.24-.42-.244-.41-.249-.403-.25-.393-.252-.384-.25-.373-.25-.363-.246-.351-.243-.341-.237-.33-.231-.318-.225-.306-.217-.296-.208-.285-.2-.274-.19-.263-.179-.253-.168-.242-.157-.233-.145-.224-.132-.214-.12-.205-.106-.197-.092-.19-.078-.18-.062-.174-.048-.167-.03-.16-.015-.154.002-.149.021-.143.04-.138.06-.134.08-.13.101-.126.125-.123.15-.12.174-.118.203-.116.233-.115.264-.115.299-.115.335-.116.376-.117.42-.12.467-.123.52-.128.578-.134.642-.14.713-.15.792-.16.88-.173.98-.189 1.092-.206 1.219-.23 1.363-.254 1.528-.281.392-.262-1.57-.235-1.401-.211-1.252-.193-1.12-.177-1.006-.163-.904-.151-.812-.143-.73-.136-.659-.129-.593-.124-.533-.12-.48-.118-.43-.116-.386-.115-.345-.115-.307-.115-.272-.116-.24-.118-.21-.12-.181-.122-.156-.125-.13-.129-.108-.132-.085-.137-.064-.142-.044-.148-.026-.152-.006-.16.01-.164.027-.173.044-.179.059-.187.074-.195.089-.203.103-.212.116-.221.13-.23.141-.241.154-.25.166-.261.177-.272.187-.282.197-.293.207-.304.214-.315.223-.327.23-.338.236-.35.241-.36.246-.37.248-.381.251-.391.252-.4.25-.41.25-.417.245-.424.24-.43.235-.436.227-.44.216-.441.206-.443.192-.442.178-.44.16-.436.144-.43.124-.424.102-.413.08-.402.057-.39.031-.373.006-.357-.022-.338-.048-.318-.076-.296-.104-.272-.132-.248-.16-.223-.188-.196-.214-.168-.24-.141-.265-.113-.288-.086-.311-.057-.332-.03-.351-.002-.369.023-.384.048-.398.073-.41.096-.42.117-.429.137-.434.155-.44.173-.44.188-.444.201-.442.213-.44.224-.437.232-.432.239-.426.244-.42.248-.412.25-.403.252-.394.251-.385.25-.374.246-.363.243-.353.238-.341.232-.33.225-.32.217-.307.21-.297.2-.285.19-.275.18-.264.17-.254.157-.243.146-.234.134-.224.12-.215.107-.206.094-.198.078-.19.064-.18.049-.175.032-.168.016-.16-.001-.155-.02-.15-.037-.143-.058-.138-.079-.134-.1-.13-.123-.127-.147-.123-.173-.12-.2-.118-.23-.117-.262-.115-.296-.115-.333-.115-.372-.115-.416-.117-.464-.12-.515-.123-.573-.127-.637-.134-.707-.14-.785-.149-.873-.159-.972-.172-1.082-.187-1.208-.205-1.351-.227-1.514-.253-.654-.28L2.1 28.65l1.413-.237 1.263-.213 1.13-.194 1.014-.178.911-.164.82-.153.737-.143.663-.136.598-.13.538-.124.483-.12.435-.119.389-.116.348-.115.31-.115.275-.115.242-.116.212-.117.184-.12.158-.122.132-.125.11-.128.086-.132.066-.137.046-.142.026-.146.009-.153-.01-.158-.025-.165-.043-.171-.057-.18-.073-.185-.088-.195-.102-.202-.115-.212-.128-.22-.141-.23-.153-.24-.165-.25-.176-.259-.186-.27-.197-.282-.206-.292-.214-.303-.222-.315-.23-.325-.235-.338-.24-.348-.246-.359-.248-.37-.25-.38-.252-.39-.251-.4-.25-.409-.246-.416-.24-.424-.236-.43-.227-.435-.217-.44-.207-.44-.193-.444-.179-.442-.163-.44-.144-.437-.125-.43-.105-.424-.082-.415-.058-.403-.033-.39-.008-.375.019-.358.046-.34.074-.32.102-.297.13-.274.158-.25.185-.225.212-.198.238-.17.263-.144.286-.115.31-.088.33-.06.35-.031.367-.005.383.021.397.047.41.07.419.094.427.116.434.135.44.155.44.17.443.187.443.2.44.213.437.223.433.231.427.239.42.244.412.248.404.25.395.251.385.252.375.25.365.246.353.243.343.238.33.233.32.225.31.219.297.21.286.2.276.192.265.18.254.17.244.16.235.146.225.135.215.121.207.108.198.095.19.08.183.065.175.05.168.034.161.017h.155l.15-.018.143-.036.14-.057.134-.076.13-.099.127-.12.123-.146.12-.171.119-.198.117-.228.115-.26.115-.292.114-.33.116-.369.117-.412.12-.46.122-.51.127-.569.133-.631.14-.701.148-.78.158-.865.17-.963.187-1.073.203-1.198.225-1.339.25-1.5.28-.915.266 1.6.239 1.426.215 1.274.195 1.141.18 1.023.164.919.154.826.144.743.136.67.13.602.125.542.121.488.119.438.116.393.115.351.115.313.115.277.116.245.117.215.12.186.12.16.126.134.128.11.132.09.136.067.141.047.147.028.152.01.157-.008.164-.024.172-.041.178-.057.186-.072.193-.086.202-.1.21-.115.22-.127.23-.14.238-.152.249-.164.259-.175.27-.186.28-.195.291-.205.303-.214.313-.222.325-.228.336-.235.348-.24.358-.246.37-.248.379-.25.39-.252.398-.25.408-.25.416-.247.423-.241.43-.236.434-.228.44-.218.44-.207.443-.195.443-.18.44-.164.437-.146.432-.127.424-.106.415-.083.404-.06.391-.036.377-.01.36.017.34.044.322.072.299.1.277.127.252.156.226.183.067.064z" fill="#3456F3"/></svg>