<svg width="64" height="65" fill="none" xmlns="http://www.w3.org/2000/svg"><path fill-rule="evenodd" clip-rule="evenodd" d="m58.676 32.502-1.956.251-1.639.218-1.376.193-1.155.173-.967.16-.806.15-.667.145-.544.14-.436.14-.34.141-.252.144-.174.15-.1.155-.032.164.032.173.092.184.149.197.204.21.258.227.309.242.358.261.407.28.453.3.497.323.54.345.579.368.616.392.65.418.68.442.706.466.725.49.74.513.748.534.75.554.742.57.728.584.704.594.674.601.633.602.585.6.53.592.466.579.397.562.322.539.244.512.162.482.08.447-.003.409-.083.37-.162.329-.235.287-.304.246-.367.205-.423.165-.472.129-.513.094-.547.063-.574.035-.592.011-.604-.01-.61-.025-.61-.039-.603-.047-.593-.052-.578-.053-.56-.051-.537-.047-.514-.038-.487-.027-.46-.014-.43.002-.4.02-.37.04-.34.06-.308.085-.278.109-.248.135-.219.162-.19.19-.162.22-.135.25-.11.28-.084.31-.062.343-.04.373-.022.404-.003.435.013.464.026.493.036.52.045.544.05.567.053.585.052.601.047.613.038.619.027.62.01.614-.009.602-.032.585-.06.558-.09.524-.124.483-.16.434-.198.377-.24.315-.279.244-.32.17-.361.092-.4.009-.438-.074-.471-.159-.502-.24-.53-.322-.55-.397-.57-.468-.581-.533-.59-.59-.593-.64-.592-.68-.585-.714-.576-.738-.563-.753-.547-.76-.527-.761-.507-.752-.484-.739-.462-.718-.437-.693-.412-.663-.389-.629-.364-.591-.342-.552-.319-.508-.297-.464-.277-.416-.258-.368-.24-.318-.224-.266-.209-.212-.195-.156-.182-.098-.172-.038-.161.028-.154.096-.147.17-.143.25-.139.337-.137.435-.139.544-.141.666-.147.806-.157.969-.17 1.157-.188 1.378-.212 1.642-.244 1.958-.25-1.669-.217-1.688-.192-1.418-.172-1.19-.158-.996-.149-.83-.142-.688-.139-.562-.137-.451-.14-.353-.14-.263-.147-.182-.153-.108-.16-.038-.17.027-.18.089-.193.147-.206.203-.222.258-.237.31-.255.36-.274.409-.295.456-.315.501-.338.545-.36.585-.385.623-.41.658-.432.689-.458.714-.48.736-.504.75-.524.76-.544.76-.56.756-.574.74-.584.718-.591.687-.593.647-.591.599-.584.542-.57.48-.555.408-.533.334-.507.253-.476.172-.443.088-.407.004-.367-.079-.327-.157-.286-.234-.245-.303-.205-.368-.166-.425-.13-.476-.095-.518-.064-.554-.037-.58-.012-.6.007-.614.025-.619.037-.619.045-.614.051-.603.053-.588.05-.57.047-.548.038-.524.028-.497.015-.469V54l-.019-.409-.037-.378-.058-.347-.082-.316-.105-.285-.131-.254-.158-.224-.185-.195-.214-.167-.243-.14-.273-.112-.304-.089-.334-.064-.366-.044-.395-.022-.426-.005-.455.012-.483.025-.51.037-.533.045-.556.05-.576.054-.59.052-.603.048-.608.04-.61.029-.606.012-.595-.008-.577-.03-.552-.059-.519-.089-.479-.123-.431-.16-.376-.198-.315-.239-.247-.28-.173-.323-.096-.363L0 49.076l.067-.44.149-.477.23-.508.31-.535.386-.558.456-.577.52-.59.576-.599.626-.602.668-.601.7-.596.725-.586.74-.572.75-.557.748-.537.742-.517.728-.494.709-.47.684-.446.655-.42.622-.397.586-.372.546-.349.504-.326.46-.304.414-.283.366-.263.317-.246.266-.228.213-.213.158-.2.102-.186.041-.175-.022-.165-.089-.156-.16-.15-.24-.145-.326-.141-.42-.14-.526-.14-.646-.144-.782-.15-.94-.157-1.123-.172-1.339-.189-1.594-.213-1.9-.245 1.33-.257 1.687-.222 1.415-.196 1.188-.177.995-.162.83-.151.687-.145.563-.141.452-.14.355-.14.266-.144.185-.148.112-.155.042-.162-.021-.171-.083-.183-.14-.195-.196-.208-.25-.223-.3-.24-.351-.258-.399-.277-.445-.297-.49-.319-.534-.341-.573-.365-.61-.388-.646-.413-.675-.439-.702-.462-.723-.486-.738-.51-.747-.53-.75-.551-.743-.568-.731-.582-.709-.593-.679-.6-.64-.602-.594-.6-.539-.594-.476-.582-.408-.564-.335-.544-.256-.516-.176-.487-.093-.453-.01-.415.07-.377.15-.335.224-.294.293-.252.358-.212.414-.171.465-.135.507-.1.542-.067.57-.04.59-.014.603.007.609.023.61.037.605.046.595.051.58.054.563.052.541.047.518.04.492.029.463.016h.435l.406-.016.374-.036.345-.058.313-.08.283-.106.253-.13.223-.159.194-.185.167-.215.139-.245.113-.275.09-.306.065-.337.044-.369.024-.399.005-.43-.01-.46-.024-.488-.035-.515-.044-.54-.05-.564-.052-.583-.052-.599-.048-.61-.04-.619-.028-.62-.014-.615.006-.605.028-.588.055-.563.085-.53.119-.49.154-.442.192-.387.232-.325.273-.256.314-.183.355-.104.394-.022.432.061.466.145.497.228.525.308.548.386.567.457.58.523.59.582.592.632.592.675.587.709.578.734.565.752.549.76.53.76.51.755.489.74.465.722.44.698.417.668.392.634.369.598.345.558.322.515.301.471.28.424.261.376.244.326.226.274.21.221.198.165.184.108.173.047.163-.017.155-.085.148-.157.143-.237.14-.323.137-.419.138-.525.141-.646.146-.783.155-.94.168-1.125.184-1.341.208-1.597.239-1.904.254 1.036.221 1.737.195 1.457.175 1.224.16 1.025.15.856.144.708.139.581.138.468.138.368.14.277.146.194.152.12.159.048.168-.017.179-.079.19-.138.205-.194.218-.25.235-.3.252-.353.271-.401.291-.45.313-.494.334-.537.357-.58.38-.617.405-.652.43-.684.453-.71.477-.733.5-.75.521-.758.54-.76.559-.757.572-.744.583-.722.59-.692.593-.654.591-.607.585-.552.574-.49.557-.42.537-.346.511-.266L47.7.12l.448-.101L48.56 0l.374.066.334.145.292.222.252.293.211.358.172.416.136.468.1.512.07.549.04.576.016.598-.005.611-.022.62-.035.619-.045.615-.05.605-.053.59-.051.574-.047.552-.04.527-.03.502-.017.473-.002.444.016.415.034.383.055.352.077.32.102.29.127.26.153.229.18.2.21.17.239.144.268.117.299.092.33.069.36.046.39.026.421.007.45-.009.479-.023.505-.035.53-.044.553-.05.573-.053.588-.053.601-.05.608-.04.61-.031.608-.015.596.004.58.027.557.054.525.084.486.117.439.153.385.193.325.232.258.274.186.316.108.357.029.397-.053.435-.137.471-.218.503-.297.531-.374.555-.444.574-.51.589-.569.597-.619.602-.661.602-.696.596-.721.588-.74.575-.747.56-.749.54-.743.52-.731.498-.713.474-.688.45-.66.424-.628.4-.591.377-.553.352-.51.33-.468.307-.421.286-.374.267-.325.248-.274.231-.222.216-.167.2-.11.189-.052.176.012.167.078.158.15.15.226.146.31.142.405.14.509.14.625.143.76.148.913.156 1.092.17 1.301.185 1.55.21 1.849.239.66.084z" fill="#EDEDED"/></svg>