<svg width="54" height="54" fill="none" xmlns="http://www.w3.org/2000/svg"><path fill-rule="evenodd" clip-rule="evenodd" d="m37.646 27 .012.107.037.108.062.108.086.112.112.114.137.118.164.123.191.129.22.134.246.143.277.151.307.16.338.172.37.183.403.195.435.21.47.225.504.241.537.26.572.277.603.297.635.317.663.338.688.359.71.38.727.4.736.42.74.439.732.453.718.467.692.475.655.48.605.48.544.472.47.46.387.443.293.416.19.385.083.347-.03.305-.141.257-.253.208-.36.155-.458.103-.55.05-.628.001-.697-.046-.753-.09-.795-.128-.825-.163-.844-.191-.85-.214-.85-.233-.837-.246-.819-.254-.795-.259-.766-.26-.733-.256-.698-.252-.662-.243-.623-.234-.585-.223-.547-.21-.51-.195-.472-.181-.438-.166-.403-.15-.37-.133-.337-.117-.307-.1-.278-.083-.25-.065-.223-.047-.197-.029-.171-.01-.147.01-.124.03-.1.052-.075.075-.054.097-.032.122-.011.145.008.17.027.194.046.221.063.248.082.276.098.304.116.336.132.367.149.4.164.434.18.47.195.507.208.544.222.582.233.62.243.658.25.696.257.73.26.764.258.793.255.817.247.837.234.847.216.852.193.844.165.827.131.798.093.757.05.702.004.635-.047.556-.099.466-.15.367-.204.262-.254.15-.3.039-.345-.074-.382-.182-.414-.285-.44-.38-.46-.464-.472-.538-.479-.601-.48-.651-.476-.69-.467-.716-.455-.732-.439-.74-.421-.736-.403-.727-.381-.712-.361-.69-.34-.666-.319-.636-.298-.607-.28-.573-.26-.54-.242-.507-.226-.473-.211-.438-.197-.405-.184-.373-.172-.34-.161-.31-.152-.279-.143-.25-.136-.22-.129-.194-.123-.166-.119-.14-.114-.113-.112-.089-.108-.063-.108-.039-.106-.014-.107.01-.107.035-.11.06-.11.084-.114.11-.118.135-.122.162-.128.19-.135.216-.142.245-.15.274-.16.304-.17.336-.182.367-.195.4-.208.433-.224.467-.24.501-.257.535-.276.569-.295.601-.316.632-.336.661-.358.687-.378.708-.4.725-.418.736-.436.74-.453.733-.466.72-.474.694-.48.658-.48.61-.473.55-.462.476-.444.394-.418.3-.388.2-.35.09-.308-.02-.262-.133-.211-.244-.16-.35-.107-.452-.055-.542-.004-.623.043-.693.086-.748.126-.792.16-.824.189-.842.213-.851.23-.849.246-.839.254-.82.258-.798.26-.768.257-.736.252-.701.244-.665.235-.626.223-.588.21-.55.198-.513.182-.475.167-.44.151-.406.135-.372.118-.34.102-.31.084-.28.066-.252.049-.225.03-.2.011-.173-.008-.149-.029-.125-.05-.101-.072-.078-.096-.056-.12-.033-.143-.013-.167.006-.193.026-.219.044-.245.062-.274.08-.302.098-.333.114-.365.13-.397.148-.431.163-.468.18-.503.193-.541.207-.58.22-.616.233-.656.242-.692.25-.728.256-.761.26-.79.259-.816.255-.835.248-.848.235-.85.217-.846.195-.83.168-.8.134-.76.096-.707.054-.64.007-.563-.043-.474-.094-.376-.147-.27-.2-.16-.249L0 38.15l.065-.341.174-.38.277-.411.372-.438.458-.458.533-.472.596-.479.648-.48.686-.476.715-.468.731-.456.74-.44.737-.424.728-.404.713-.383.692-.363.667-.34.64-.321.608-.3.577-.28.543-.263.509-.244.475-.227.441-.212.408-.198.375-.185.343-.173.312-.162.281-.152.252-.144.224-.137.195-.129.168-.124.142-.119.116-.114.09-.112.066-.11.04-.107.017-.106-.009-.107-.032-.107-.058-.109-.082-.11-.108-.114-.134-.117-.16-.123-.186-.127-.215-.134-.242-.141-.272-.15-.302-.159-.333-.17-.365-.18-.397-.194-.43-.207-.465-.223-.498-.238-.533-.256-.565-.275-.599-.293-.63-.314-.658-.335-.685-.356-.707-.377-.724-.397-.735-.417-.74-.435-.734-.452-.721-.464-.697-.475-.661-.479-.614-.48-.555-.474-.483-.463-.4-.445-.309-.421-.207-.39-.1-.354.01-.312.125-.265.235-.216L.722 15l.443-.11.536-.06.617-.008.687.04.745.082.789.123.821.157.842.187.85.211.85.23.84.244.822.254.8.258.77.26.739.257.704.253.667.245.63.235.59.224.554.212.515.198.479.184.442.168.409.152.374.137.343.12.312.102.283.085.254.068.227.05.201.032.176.013.15-.007.128-.027.103-.048.08-.07.057-.095.035-.117.015-.142-.005-.166-.024-.19-.043-.217-.061-.243-.078-.271-.096-.3-.113-.33-.13-.363-.146-.394-.162-.43-.177-.463-.193-.501-.206-.538-.22-.576-.23-.614-.242-.653-.25-.69-.256-.724-.26-.759-.258-.788-.256-.814-.248-.834-.237-.846-.219-.852-.197-.846-.17-.83-.137-.804-.1-.764-.057-.712-.01-.646.038-.57.09-.48.143-.384.195-.28.246-.168.294-.056.337.056.377.165.41.27.436.364.456.452.47.528.48.591.48.644.476.684.469.713.457.73.442.739.425.738.405.729.385.714.364.694.343.67.322.641.302.612.282.579.263.545.246.512.228.478.214.444.199.41.185.378.174.346.163.314.153.284.145.254.137.225.13.198.124.17.119.144.115.118.112.093.11.067.107.043.107.018.106-.006.107-.031.109-.056.11-.08.114-.106.117-.132.121-.157.128-.185.133-.212.14-.24.15-.27.158-.3.168-.33.18-.362.193-.395.206-.428.221-.461.237-.496.255-.53.273-.563.292-.596.312-.627.333-.657.354-.682.375-.706.396-.723.416-.734.434-.74.45-.735.464-.722.473-.7.48-.664.48-.618.474-.56.464-.489.447-.408.423-.316.393-.215.357-.11.315.003.27.115.219.227.168.334.115.436.063.529.013.61-.036.683-.08.74-.12.786-.154.82-.185.84-.21.85-.228.85-.243.84-.253.825-.258.801-.26.773-.257.742-.253.707-.246.67-.236.632-.225.594-.213.556-.2.519-.184.481-.17.446-.153.41-.138.378-.12.346-.105.314-.087.285-.069.256-.051.23-.034.203-.014.177.005.153.026.129.046.105.069.082.092.059.116.037.14.016.163-.003.189-.023.214-.041.241-.06.27-.077.297-.095.328-.111.36-.128.391-.145.426-.16.462-.177.497-.191.535-.206.573-.218.611-.23.65-.241.686-.25.723-.255.756-.259.786-.26.812-.256.832-.248.846-.238.851-.22.847-.2.833-.172.806-.14.767-.102.716-.061.653-.015.575.035.49.086.391.139.287.19.178.242.065.29-.047.335-.157.373-.26.407-.359.434-.445.456-.522.47-.587.478-.64.48-.681.477-.71.47-.73.458-.739.443-.738.426-.73.407-.716.387-.695.366-.672.344-.644.324-.614.304-.581.283-.549.265-.514.246-.48.23-.447.215-.413.2-.38.187-.349.175-.316.163-.287.154-.256.145-.228.138-.2.13-.172.125-.146.12-.12.115-.095.112-.07.11-.044.107-.02.107-.001.034z" fill="#2BE080"/></svg>