<svg width="25" height="25" fill="none" xmlns="http://www.w3.org/2000/svg"><mask id="a" style="mask-type:alpha" maskUnits="userSpaceOnUse" x="0" y="0" width="25" height="25"><path fill="#fff" d="M.861.248h24v24h-24z"/></mask><g mask="url(#a)"><path d="M2.861 20.248v-2.8c0-.55.142-1.067.425-1.55.283-.483.675-.85 1.175-1.1.85-.433 1.808-.8 2.875-1.1 1.067-.3 2.242-.45 3.525-.45.5 0 .987.025 1.462.075.476.05.938.125 1.388.225l-1.75 1.75a2.995 2.995 0 0 0-.537-.05h-.563c-1.183 0-2.246.142-3.187.425-.942.283-1.713.592-2.313.925a.973.973 0 0 0-.5.85v.8h6.25l2 2H2.861zm13.55.4-3.45-3.45 1.4-1.4 2.05 2.05 5.05-5.05 1.4 1.4-6.45 6.45zm-5.55-8.4c-1.1 0-2.042-.392-2.825-1.175-.783-.783-1.175-1.725-1.175-2.825s.392-2.042 1.175-2.825c.783-.783 1.725-1.175 2.825-1.175s2.042.392 2.825 1.175c.783.783 1.175 1.725 1.175 2.825s-.392 2.042-1.175 2.825c-.783.783-1.725 1.175-2.825 1.175zm0-2c.55 0 1.02-.196 1.412-.587.392-.392.588-.863.588-1.413s-.196-1.02-.588-1.412a1.926 1.926 0 0 0-1.412-.588c-.55 0-1.02.196-1.412.588a1.926 1.926 0 0 0-.588 1.412c0 .55.196 1.02.588 1.413.391.391.862.587 1.412.587z" fill="#fff"/></g></svg>