<svg width="1030" height="72" fill="none" xmlns="http://www.w3.org/2000/svg"><path fill-rule="evenodd" clip-rule="evenodd" d="m197.149 85.489.107.269.322.275.542.288.77.309 1.007.336 1.256.372 1.515.415 1.777.468 2.036.528 2.274.593 2.466.662 2.58.727 2.571.779 2.397.808 2.025.802 1.45.752.705.656-.132.518-.96.359-1.679.194-2.218.045-2.55-.073-2.687-.157-2.664-.206-2.527-.226-2.317-.221-2.069-.2-1.805-.168-1.54-.125-1.283-.077-1.039-.025-.808.031-.587.09-.377.155-.173.222.027.296.228.377.43.466.638.564.853.672 1.074.793 1.303.923 1.532 1.063 1.753 1.208 1.952 1.352 2.104 1.479 2.179 1.576 2.141 1.615 1.952 1.574 1.588 1.431 1.05 1.177.372.821-.371.402-1.088-.033-1.694-.428-2.133-.744-2.388-.96-2.472-1.077-2.424-1.108-2.282-1.075-2.082-.995-1.853-.888-1.617-.764-1.383-.634-1.159-.501-.949-.367-.752-.236-.566-.104-.391.027-.223.163-.06.301.101.446.26.6.423.765.588.942.755 1.131.926 1.334 1.092 1.545 1.25 1.757 1.385 1.958 1.479 2.126 1.511 2.235 1.451 2.25 1.277 2.132.97 1.857.541 1.418.018.842-.536.187-1.057-.462-1.48-1.032-1.773-1.466-1.925-1.741-1.955-1.866-1.891-1.87-1.764-1.781-1.601-1.635-1.422-1.452-1.242-1.255-1.068-1.051-.904-.85-.753-.654-.613-.462-.485-.275-.366-.09-.255.093-.149.28-.049.472.05.672.145.884.24 1.109.334 1.345.423 1.595.508 1.851.582 2.103.638 2.335.667 2.521.655 2.624.588 2.603.458 2.417.258 2.034-.002 1.456-.297.725-.595-.084-.857-.867-1.055-1.534-1.174-2.022-1.217-2.317-1.197-2.429-1.132-2.398-1.042-2.264-.938-2.065-.832-1.83-.73-1.582-.637-1.332-.552-1.086-.479-.851-.413-.624-.357-.404-.308-.191-.268.019-.233.232-.204.447-.18.671-.164.902-.151 1.148-.145 1.403-.146 1.669-.154 1.938-.172 2.2-.199 2.434-.236 2.61-.284 2.694-.339 2.636-.399 2.396-.456 1.95-.501 1.3-.528.499-.53-.363-.507-1.181-.463-1.859-.409-2.339-.349-2.612-.292-2.694-.243-2.631-.204-2.467-.175-2.239-.157-1.981-.147-1.712-.144-1.445-.15-1.188-.161-.94-.178-.707-.199-.482-.228-.266-.262-.053-.301.157-.349.37-.404.589-.467.814-.54 1.048-.623 1.292-.715 1.542-.815 1.791-.921 2.03-1.026 2.236-1.119 2.382-1.189 2.433-1.218 2.345-1.185 2.083-1.079 1.624-.894.983-.64.213-.346-.598-.047-1.349.22-1.954.431-2.369.572-2.586.648-2.63.668-2.544.645-2.369.593-2.142.52-1.891.437-1.636.348-1.384.255-1.145.161-.919.065-.706-.033-.503-.133-.31-.238-.123-.347.062-.466.245-.592.432-.73.622-.879.819-1.041 1.019-1.213 1.222-1.394 1.422-1.573 1.607-1.74 1.762-1.874 1.86-1.951 1.875-1.937 1.77-1.806 1.52-1.536 1.111-1.132.561-.623-.082-.07-.74.463-1.335.91-1.798 1.236-2.099 1.432-2.24 1.508-2.245 1.489-2.149 1.403-1.987 1.273-1.79 1.119-1.579.952-1.367.783-1.163.614-.971.449-.792.286-.626.126-.47-.035-.324-.196-.184-.364-.049-.537.083-.722.215-.916.347-1.125.479-1.347.613-1.579.744-1.816.869-2.047.98-2.252 1.064-2.407 1.106-2.473 1.087-2.411.986-2.186.785-1.777.484-1.193.1-.489-.332.256-.758.949-1.125 1.513-1.398 1.907-1.559 2.121-1.615 2.182-1.586 2.122-1.498 1.98-1.373 1.787-1.231 1.568-1.086 1.339-.945 1.111-.813.887-.69.672-.58.463-.482.259-.39.06-.309-.141-.234-.344-.164-.554-.1-.771-.04-1.002.015-1.244.07-1.498.117-1.762.161-2.027.196-2.28.22-2.498.226-2.648.21-2.693.168-2.584.089-2.285-.025-1.778-.169-1.085-.331-.267-.495.576-.636 1.341-.74 1.947-.797 2.352-.81 2.555-.785 2.587-.736 2.491-.673 2.309-.604 2.076-.538 1.819-.477 1.555-.423 1.297-.378 1.047-.342.807-.312.577-.291.357-.277.141-.27-.073-.268-.287-.273-.507-.286-.733-.305-.969-.331-1.216-.366-1.472-.408-1.736-.459-1.995-.518-2.238-.582-2.441-.651-2.568-.717-2.583-.772-2.437-.805-2.098-.806-1.555-.764-.832-.674-.004-.542.834-.385 1.575-.22 2.146-.067 2.511.056 2.677.146 2.676.201 2.555.224 2.354.224 2.11.205 1.847.173 1.581.132 1.324.085 1.077.034.844-.022.622-.081.409-.144.206-.211.004-.284-.196-.364-.397-.45-.605-.548-.818-.655-1.039-.772-1.266-.902-1.495-1.04-1.719-1.185-1.923-1.33-2.084-1.46-2.174-1.564-2.156-1.613-1.993-1.587-1.659-1.462-1.145-1.224-.487-.883.252-.471.979-.035 1.608.37 2.075.7 2.359.932 2.469 1.065 2.439 1.108 2.309 1.083 2.116 1.01 1.891.906 1.655.785 1.42.655 1.194.522.981.389.782.256.595.126.418-.007.25-.14.085-.28-.074-.422-.235-.575-.397-.738-.561-.912-.729-1.101-.898-1.301-1.067-1.51-1.226-1.724-1.365-1.928-1.468-2.102-1.511-2.224-1.468-2.255-1.313-2.16-1.028-1.913-.616-1.498-.106-.94.449-.294.979.362 1.421.95 1.735 1.407 1.91 1.707 1.957 1.856 1.906 1.876 1.788 1.8 1.628 1.66 1.451 1.484 1.271 1.287 1.095 1.084.929.881.776.684.635.492.505.305.384.12.272-.064.166-.25.064-.44-.034-.64-.13-.85-.225-1.072-.319-1.307-.409-1.554-.495-1.81-.571-2.064-.631-2.3-.665-2.496-.66-2.615-.603-2.617-.483-2.458-.294-2.109-.043-1.56.249-.849.549-.045.819.748 1.029 1.438 1.16 1.958 1.214 2.282 1.204 2.422 1.145 2.41 1.057 2.291.955 2.1.849 1.87.746 1.621.651 1.371.565 1.125.489.888.423.659.366.44.316.224.273.014.238-.198.208-.413.185-.634.165-.865.153-1.107.145-1.362.146-1.626.152-1.896.169-2.16.194-2.398.229-2.588.276-2.688.33-2.657.389-2.448.447-2.035.495-1.415.525-.634.532.226.512 1.058.472 1.763.417 2.277.359 2.582.3 2.692.25 2.65.21 2.497.179 2.278.159 2.024.148 1.755.145 1.487.148 1.227.159.98.174.743.196.517.223.3.256.087.295-.124.341-.336.394-.553.457-.778.528-1.01.608-1.253.7-1.502.799-1.752.904-1.993 1.009-2.206 1.106-2.364 1.18-2.433 1.217-2.37 1.195-2.138 1.101-1.71.929-1.096.684-.34.394.47.093 1.237-.181 1.87-.401 2.317-.555 2.563-.64 2.633-.668 2.565-.651 2.4-.602 2.18-.533 1.933-.451 1.676-.362 1.424-.27 1.182-.176.954-.08.74.017.534.117.34.22.153.33-.033.446-.216.571-.402.707-.591.855-.787 1.014-.987 1.186-1.19 1.364-1.39 1.546-1.58 1.714-1.74 1.856-1.85 1.944-1.879 1.947-1.796 1.835-1.57 1.589-1.187 1.204-.656.709-.024.158.638-.382 1.247-.846 1.734-1.193 2.063-1.409 2.228-1.503 2.252-1.498 2.169-1.42 2.016-1.296 1.823-1.144 1.613-.979 1.4-.81 1.195-.641 1-.475.82-.312.652-.151.494.009.347.17.206.337.07.509-.062.691-.194.885-.326 1.091-.458 1.311-.592 1.541-.723 1.778-.85 2.012-.963 2.222-1.053 2.387-1.104 2.47-1.095 2.431-1.007 2.234-.824 1.854-.54 1.297-.165.606.263-.138.692-.846 1.073-1.435 1.362-1.856 1.54-2.098 1.613-2.182 1.595-2.138 1.515-2.006 1.394-1.82 1.255-1.604 1.109-1.376.967-1.146.832-.923.71-.706.597-.495.496-.292.404-.091.322.109.245.311.175.52.11.736.05.964-.007 1.204-.061 1.457-.11 1.72-.155 1.986-.19 2.241-.218 2.466-.226 2.631-.215 2.694-.177 2.614-.103 2.346.004 1.873.144 1.205.305.402.47-.444.615-1.229.727-1.863.791-2.301.81-2.535.792-2.592.745-2.514.683-2.341.615-2.115.548-1.861.487-1.598.43-1.337.386-1.086.346-.844.317-.614.294-.391.279-.175.27-.011.085zM452 5l-.021.32-.062.318-.103.316-.143.313-.183.308-.22.303-.256.296-.291.288-.323.28-.353.272-.381.262-.406.251-.429.242-.449.23-.467.22-.482.207-.493.198-.504.186-.511.175-.516.165-.518.155-.519.144-.518.135-.514.127-.509.118-.503.11-.494.103-.485.096-.474.09-.463.085-.45.08-.436.077-.422.072-.408.07-.392.068-.377.067-.36.066-.344.065-.327.066-.311.067-.293.069-.276.071-.259.074-.242.078-.224.082-.206.087-.189.093-.171.1-.154.106-.135.114-.116.123-.098.133-.08.144-.06.155-.04.168-.02.182.001.197.022.213.045.232.068.252.093.275.118.298.146.324.174.354.206.386.238.422.274.462.313.505.355.555.4.61.451.671.505.74.568.82.635.906.711 1.008.797 1.122.893 1.253 1.003 1.404-.118.322-1.417-1.012-1.264-.902-1.132-.804-1.016-.717-.915-.642-.825-.572-.746-.51-.677-.455-.614-.404-.559-.358-.51-.316-.464-.277-.425-.242-.389-.208-.357-.177-.326-.147-.301-.12-.275-.095-.254-.07-.234-.047-.215-.024-.198-.003-.183.019-.169.038-.156.059-.145.077-.133.097-.124.115-.115.134-.107.152-.1.17-.093.187-.088.205-.082.223-.079.24-.074.257-.071.275-.069.292-.068.31-.066.325-.065.343-.066.36-.066.374-.068.391-.07.407-.072.42-.076.436-.08.449-.085.462-.089.473-.096.484-.102.494-.11.502-.117.508-.126.514-.135.518-.143.519-.154.518-.164.516-.175.512-.185.504-.196.495-.208.482-.218.468-.23.45-.24.431-.251.408-.261.383-.27.356-.28.325-.288.294-.295.259-.302.223-.308.185-.313.147-.316.106-.318.066-.32.024-.32-.017-.318-.06-.317-.1-.313-.14-.309-.179-.303-.217-.296-.254-.29-.288-.28-.32-.273-.351-.262-.379-.252-.404-.242-.427-.232-.448-.22-.465-.209-.48-.198-.493-.187-.503-.176-.51-.166-.516-.155-.519-.146-.519-.136-.518-.127-.514-.118-.51-.111-.503-.104-.495-.096-.486-.091-.475-.085-.463-.081-.451-.076-.438-.073-.423-.071-.41-.068-.393-.066-.377-.066-.362-.065-.345-.066-.329-.067-.312-.069-.294-.071-.278-.074-.26-.077-.243-.082-.226-.087-.208-.092-.19-.099-.173-.106-.154-.114-.137-.122-.118-.132-.1-.143-.08-.154-.062-.167-.042-.18-.021-.196-.001-.212.02-.231.044-.25.066-.272.09-.297.117-.322.143-.351.172-.384.203-.419.236-.458.271-.502.31-.551.35-.605.397-.666.447-.735.5-.812.563-.899.63-.999.704-1.113.79-1.242.885-1.391.993-.525.087 1.021-1.43.91-1.276.811-1.141.725-1.025.646-.922.578-.832.515-.753.459-.681.408-.62.362-.563.319-.513.28-.468.244-.428.211-.392.179-.358.15-.33.123-.302.096-.277.072-.256.049-.235.026-.216.004-.2-.017-.184-.037-.17-.057-.157-.076-.146-.095-.134-.114-.125-.132-.115-.15-.108-.169-.1-.186-.094-.204-.088-.221-.083-.239-.079-.256-.074-.273-.072-.291-.07-.308-.067-.324-.066-.342-.065-.357-.066-.374-.066-.39-.068-.405-.07-.42-.072-.434-.075-.448-.08-.461-.084-.472-.09-.484-.095-.492-.101-.502-.11-.508-.116-.514-.125-.517-.134-.519-.143-.518-.153-.517-.163-.512-.174-.505-.184-.495-.195-.484-.207-.469-.217-.452-.23-.432-.238-.41-.25-.385-.26-.358-.27-.328-.28-.296-.287-.262-.295-.226-.301-.189-.308-.149-.312-.11-.316-.069-.318-.027-.32.014-.32.056-.318.096-.317.137-.314.177-.309.214-.303.251-.297.285-.29.318-.282.349-.273.376-.263.403-.253.425-.243.446-.232.464-.221.479-.21.492-.199.503-.188.509-.177.516-.166.518-.157.519-.146.518-.137.515-.127.51-.12.504-.11.495-.105.487-.097.476-.091.464-.086.452-.081.439-.077.425-.073.41-.07.394-.069.379-.066.363-.066.347-.066.33-.065.313-.067.296-.069.279-.07.262-.074.244-.077.227-.082.209-.086.192-.092.174-.098.156-.105.138-.114.119-.121.102-.131.082-.142.063-.153.043-.166.024-.18.002-.194-.019-.211-.041-.23-.064-.248-.089-.27-.114-.294-.141-.32-.17-.35-.2-.38-.233-.417-.269-.454-.306-.499-.348-.546-.393-.6-.442-.662-.496-.729-.557-.805-.624-.893-.699-.99-.782-1.103-.878-1.231-.984-1.379-.291-.728 1.443 1.03 1.288.919 1.151.819 1.034.73.93.653.839.583.758.52.687.463.624.412.567.365.517.323.472.283.431.246.394.214.361.181.332.153.304.124.279.1.258.073.236.05.218.028.201.006.185-.015.172-.036.158-.055.146-.075.135-.093.125-.113.117-.13.108-.15.101-.166.094-.185.089-.202.083-.22.079-.238.075-.254.072-.272.069-.29.067-.306.067-.323.065-.34.066-.357.066-.372.067-.389.07-.404.072-.419.075-.433.079-.447.084-.46.089-.47.095-.483.101-.492.109-.501.116-.508.124-.513.133-.517.142-.519.153-.519.162-.517.173-.512.183-.505.195-.497.205-.484.217-.47.228-.454.238-.434.249-.412.26-.387.269-.36.278-.33.287-.3.294-.264.301-.229.307-.192.312-.152.315-.113.319-.072.319-.031.32.01.319.053.317.094.314.133.309.174.304.211.298.248.29.283.283.315.273.346.264.375.254.4.244.424.233.444.222.463.211.478.2.491.189.502.177.509.168.515.157.518.147.52.137.517.129.515.12.511.111.504.105.497.098.487.091.477.087.465.081.453.077.44.073.426.071.41.068.397.067.38.066.364.065.348.066.332.067.314.068.297.071.28.073.264.077.246.081.228.086.21.092.194.097.175.105.158.112.14.121.12.131.103.141.084.152.064.165.045.178.025.193.004.21-.017.227-.04.248-.062.268-.086.292-.112.318-.14.347-.167.378-.198.413-.23.452-.265.494-.304.543-.344.596-.389.656-.438.723-.492.799-.552.885-.619.982-.692 1.094-.775 1.22-.87 1.366-.975.931-.495-1.04 1.456-.927 1.299-.826 1.162-.737 1.042-.659.938-.588.845-.525.765-.467.692-.416.629-.369.571-.325.521-.286.475-.25.434-.216.397-.184.364-.155.334-.126.306-.101.282-.076.258-.052.239-.029.22-.008.201.013.187.034.172.054.16.073.146.092.136.111.126.129.118.148.108.165.102.183.095.201.089.219.083.236.08.253.075.271.072.288.07.305.067.322.066.339.066.355.065.371.066.387.068.403.069.418.072.432.075.446.079.458.083.471.089.481.094.492.1.5.108.507.116.513.123.517.133.519.141.518.152.517.161.513.172.506.183.497.193.486.205.472.216.455.227.435.238.414.248.389.258.362.269.333.277.302.286.267.294.232.3.195.307.156.312.116.315.075.318.034.32.002.101zM618.989 75.501l.025.22.074.22.124.224.175.228.225.235.278.243.331.253.386.264.441.278.5.293.558.31.62.33.682.352.746.376.813.402.88.431.948.463 1.017.496 1.085.532 1.153.57 1.218.61 1.281.652 1.338.695 1.39.738 1.433.781 1.466.824 1.487.864 1.492.9 1.48.933 1.449.958 1.397.977 1.321.986 1.221.986 1.098.972.95.947.781.908.591.856.385.791.166.714-.059.626-.286.53-.511.426-.725.319-.926.211-1.109.105-1.269.001-1.408-.095-1.518-.185-1.605-.264-1.666-.334-1.703-.393-1.718-.44-1.712-.479-1.691-.505-1.654-.523-1.604-.532-1.546-.533-1.481-.528-1.409-.517-1.335-.5-1.258-.482-1.181-.457-1.104-.43-1.029-.403-.954-.372-.882-.34-.813-.309-.746-.275-.682-.24-.62-.206-.562-.17-.504-.133-.45-.097-.397-.06-.347-.02-.296.021-.249.063-.201.106-.154.153-.108.2-.065.25-.023.299.017.348.055.4.092.454.128.51.164.566.2.627.233.69.267.754.3.822.332.893.363.966.393 1.041.421 1.118.447 1.197.47 1.275.49 1.353.507 1.429.518 1.502.523 1.57.523 1.629.515 1.681.497 1.719.472 1.743.436 1.749.39 1.736.333 1.701.266 1.64.187 1.555.101 1.443.007 1.305-.094 1.143-.2.959-.305.755-.41.537-.512.31-.608.079-.694-.151-.771-.375-.836-.586-.888-.78-.928-.955-.953-1.107-.967-1.234-.969-1.339-.96-1.417-.943-1.472-.918-1.505-.887-1.519-.851-1.515-.812-1.495-.771-1.463-.728-1.419-.686-1.367-.643-1.31-.603-1.246-.563-1.179-.525-1.111-.49-1.041-.456-.971-.426-.901-.397-.833-.371-.766-.348-.7-.325-.636-.307-.573-.289-.513-.273-.455-.261-.397-.249-.341-.239-.287-.231-.234-.225-.182-.22-.13-.217-.08-.215-.03-.215.021-.216.072-.22.123-.224.173-.23.226-.238.278-.247.333-.258.388-.272.446-.286.503-.304.564-.322.626-.344.689-.367.755-.393.822-.421.891-.451.96-.485 1.03-.519 1.099-.557 1.169-.596 1.236-.637 1.299-.679 1.359-.722 1.411-.763 1.456-.806 1.491-.845 1.513-.882 1.519-.913 1.509-.939 1.479-.959 1.427-.968 1.353-.968 1.253-.956 1.129-.932.98-.896.81-.845.617-.782.41-.707.187-.622-.042-.528-.273-.427-.502-.322-.721-.216-.928-.111-1.115-.009-1.281.086-1.422.175-1.539.254-1.628.323-1.693.381-1.732.43-1.749.466-1.745.495-1.724.512-1.687.522-1.639.524-1.579.519-1.513.509-1.441.493-1.366.474-1.287.451-1.209.425-1.131.397-1.053.368-.978.337-.904.305-.834.273-.765.239-.7.204-.636.17-.576.134-.518.098-.463.061-.409.023-.356-.017-.307-.058-.257-.101-.208-.146-.16-.194-.115-.241-.069-.289-.027-.338.014-.389.053-.442.09-.495.129-.552.164-.611.2-.672.235-.735.269-.803.303-.871.335-.943.368-1.016.397-1.092.427-1.169.453-1.246.477-1.322.498-1.398.515-1.469.526-1.536.533-1.596.533-1.647.525-1.685.508-1.711.484-1.718.447-1.706.401-1.674.344-1.616.276-1.534.198-1.427.11-1.293.015-1.136-.088-.957-.194-.758-.302-.545-.41-.323-.513-.095-.611.131-.7.351-.78.559-.847.751-.9.925-.942 1.076-.97 1.203-.983 1.307-.987 1.386-.98 1.443-.961 1.476-.937 1.491-.906 1.489-.87 1.47-.83 1.439-.788 1.397-.745 1.347-.702 1.291-.659 1.228-.617 1.164-.576 1.096-.538 1.028-.502.959-.467.89-.436.824-.407.757-.38.692-.356.629-.333.568-.313.509-.296.451-.28.394-.266.34-.254.286-.245.234-.236.182-.229.132-.224.083-.221.032-.22-.017-.219-.066-.22-.116-.223-.167-.228-.217-.234-.27-.241-.322-.25-.377-.263-.432-.275-.49-.29-.549-.308-.61-.327-.672-.348-.736-.372-.802-.398-.869-.426-.937-.458-1.006-.49-1.075-.526-1.142-.564-1.208-.604-1.271-.645-1.33-.688-1.382-.732-1.427-.774-1.461-.817-1.484-.858-1.492-.894-1.484-.928-1.455-.955-1.407-.975-1.334-.985-1.239-.986-1.12-.976-.975-.951-.809-.916-.622-.865-.419-.802-.202-.727.023-.64.251-.546.475-.443.691-.337.896-.228 1.081-.121 1.245-.018 1.387.08 1.503.172 1.593.252 1.658.324 1.698.384 1.717.434 1.715.472 1.695.502 1.66.52 1.613.532 1.556.533 1.492.53 1.42.519 1.347.503 1.271.484 1.193.462 1.116.435 1.041.407.966.377.893.346.824.313.757.28.692.246.63.211.57.176.513.14.459.102.405.066.355.026.304-.014.257-.056.208-.099.162-.145.115-.194.071-.241.03-.29-.01-.341-.049-.392-.087-.445-.122-.5-.159-.558-.194-.617-.228-.68-.261-.743-.295-.811-.327-.882-.358-.954-.388-1.03-.417-1.105-.443-1.184-.467-1.263-.487-1.34-.504-1.418-.517-1.49-.523-1.56-.523-1.62-.517-1.673-.501-1.714-.476-1.74-.443-1.75-.398-1.74-.342-1.707-.277-1.652-.201-1.57-.116-1.462-.021-1.33.077-1.17.183-.989.288-.789.394-.573.496-.346.593-.116.681.115.76.34.826.553.881.75.922.929.95 1.084.965 1.216.97 1.324.962 1.406.946 1.465.923 1.501.892 1.518.857 1.517.818 1.499.778 1.468.735 1.427.692 1.376.65 1.32.609 1.255.569 1.19.532 1.123.495 1.052.462.982.43.912.402.844.375.776.351.71.329.647.309.583.292.523.276.463.262.406.251.35.24.296.233.243.225.19.221.139.217.087.216.037.215-.013.216-.063.219-.115.223-.165.229-.217.236-.27.246-.325.256-.379.27-.436.284-.494.3-.554.319-.616.34-.68.364-.744.388-.81.417-.88.446-.95.479-1.018.514-1.089.551-1.157.59-1.225.63-1.29.672-1.35.715-1.403.757-1.45.799-1.486.839-1.51.876-1.52.908-1.511.936-1.485.956-1.437.967-1.366.969-1.27.959-1.151.937-1.006.902-.838.854-.65.793-.443.72-.224.636.005.543.237.444.466.339.687.233.896.127 1.086.025 1.256-.072 1.402-.161 1.522-.242 1.616-.312 1.684-.373 1.727-.422 1.748-.462 1.747-.491 1.728-.51 1.694-.521 1.647-.524 1.59-.52 1.524-.511 1.453-.496 1.377-.477 1.3-.455 1.222-.429 1.143-.402 1.066-.373.99-.342.915-.31.845-.278.776-.244.71-.21.646-.175.585-.14.528-.104.47-.067.418-.029.365.01.314.052.265.094.216.139.168.186.121.233.077.282.033.33-.007.381-.047.433-.085.487-.122.542-.158.602-.195.662-.23.725-.263.791-.297.86-.33.932-.363 1.004-.393 1.08-.422 1.157-.45 1.233-.473 1.311-.494 1.385-.513 1.459-.525 1.526-.532 1.586-.533 1.64-.527 1.68-.512 1.707-.488 1.718-.453 1.71-.41 1.68-.354 1.627-.287 1.55-.211 1.445-.125 1.316-.03 1.163.07.986.178.791.285.58.392.358.498.132.596-.095.687-.317.767-.526.837-.722.893-.899.936-1.053.965-1.185.983-1.292.987-1.375.981-1.435.965-1.473.942-1.49.911-1.49.876-1.474.837-1.444.795-1.405.752-1.356.708-1.299.666-1.239.623-1.174.583-1.107.544-1.039.507-.97.473-.901.441-.834.411-.768.384-.702.36-.639.336-.578.317-.518.298-.46.282-.403.268-.348.256-.295.246-.242.237-.191.23-.14.226-.09.221-.04.22-.003.07zM937.235 71.478l.017.048.052.048.088.05.125.054.165.058.208.064.254.072.305.081.362.093.424.106.495.123.573.143.659.166.756.194.861.225.977.262 1.102.305 1.232.352 1.367.404 1.502.461 1.63.52 1.744.582 1.836.642 1.891.695 1.902.74 1.856.768 1.743.78 1.56.766 1.303.725.981.655.604.556.191.435-.237.294-.655.141-1.039-.012-1.371-.16-1.636-.291-1.827-.404-1.945-.494-1.991-.557-1.979-.596-1.917-.614-1.817-.611-1.692-.596-1.554-.567-1.407-.531-1.262-.491-1.122-.448-.989-.404-.868-.36-.756-.32-.655-.281-.566-.244-.486-.21-.414-.179-.351-.149-.295-.121-.243-.096-.198-.07-.154-.046-.115-.021-.077.003-.04.03-.003.056.033.084.067.114.103.145.14.18.178.217.22.26.264.307.314.362.366.422.426.492.489.57.559.656.634.755.714.861.797.978.881 1.102.963 1.23 1.039 1.357 1.105 1.48 1.152 1.589 1.175 1.675 1.167 1.727 1.12 1.737 1.031 1.691.895 1.586.716 1.414.496 1.181.245.89-.022.555-.294.196-.554-.171-.786-.523-.981-.842-1.132-1.111-1.232-1.325-1.287-1.475-1.298-1.567-1.273-1.603-1.219-1.591-1.145-1.543-1.057-1.465-.962-1.37-.867-1.26-.772-1.15-.683-1.035-.6-.926-.525-.822-.457-.726-.396-.636-.344-.555-.296-.481-.256-.415-.22-.355-.189-.3-.162-.253-.139-.207-.118-.165-.1-.128-.084-.092-.07-.057-.058-.024-.046.01-.035.041-.027.077-.017.112-.009.15-.002.19.007.234.013.283.02.337.027.396.033.464.038.538.044.623.049.717.052.821.054.936.055 1.062.052 1.197.047 1.34.038 1.486.024 1.632.006 1.77-.018 1.892-.048 1.987-.083 2.043-.124 2.05-.166 1.99-.211 1.862-.255 1.654-.292 1.372-.324 1.017-.344.61-.352.165-.346-.289-.329-.729-.298-1.13-.26-1.472-.215-1.742-.167-1.934-.12-2.048-.076-2.09-.037-2.07-.003-2 .023-1.893.045-1.761.059-1.616.069-1.463.074-1.312.075-1.167.075-1.029.071-.902.066-.786.06-.682.053-.588.045-.504.037-.428.029-.361.021-.3.011-.245.002-.195-.008-.147-.019-.102-.031-.058-.044-.014-.059.029-.075.071-.093.115-.111.159-.134.205-.159.256-.187.31-.22.369-.257.435-.3.508-.349.587-.406.677-.468.772-.54.878-.62.99-.705 1.106-.798 1.226-.894 1.343-.991 1.452-1.085 1.546-1.169 1.617-1.236 1.653-1.279 1.645-1.291 1.585-1.261 1.464-1.188 1.28-1.067 1.035-.898.734-.688.392-.447.025-.186-.346.079-.7.333-1.018.564-1.285.761-1.49.914-1.633 1.027-1.71 1.094-1.73 1.123-1.703 1.119-1.635 1.087-1.54 1.036-1.428.97-1.304.896-1.179.818-1.055.739-.936.662-.826.588-.725.52-.632.457-.55.398-.478.345-.412.296-.355.252-.305.212-.26.175-.22.142-.186.109-.154.08-.127.051-.1.023-.078-.005-.055-.032-.034-.061-.015-.09.005-.122.024-.155.045-.193.064-.233.085-.278.108-.329.132-.386.157-.449.184-.521.214-.601.245-.693.28-.793.317-.905.354-1.026.393-1.157.434-1.296.471-1.437.507-1.577.537-1.71.56-1.826.569-1.914.564-1.964.542-1.963.497-1.9.43-1.767.34-1.561.228-1.281.097-.938-.045-.544-.19-.12-.334.309-.464.721-.575 1.092-.662 1.406-.72 1.65-.753 1.82-.757 1.919-.74 1.951-.705 1.926-.658 1.857-.602 1.755-.542 1.631-.481 1.494-.423 1.353-.369 1.213-.318 1.079-.273.951-.234.834-.2.727-.17.63-.146.542-.124.463-.106.393-.092.328-.08.271-.07.217-.063.167-.056.121-.052.075-.049.03-.047-.015-.047-.061-.048-.106-.051-.152-.055-.201-.06-.254-.068-.309-.076-.371-.088-.44-.102-.517-.118-.6-.138-.695-.162-.799-.19-.913-.222-1.037-.26-1.169-.304-1.309-.352-1.449-.405-1.589-.462-1.717-.523-1.827-.583-1.909-.64-1.948-.692-1.936-.73-1.859-.755-1.713-.756-1.491-.733-1.199-.684-.844-.605-.444-.502-.017-.377.411-.237.817-.091 1.178.053 1.48.187 1.709.307 1.866.403 1.95.479 1.969.53 1.935.56 1.858.569 1.749.563 1.621.546 1.482.517 1.34.483 1.201.446 1.067.406.942.367.828.328.723.291.63.257.546.223.471.194.405.165.346.14.293.115.247.092.205.071.167.05.133.031.1.011.07-.008.041-.028.013-.048-.014-.07-.042-.093-.07-.118-.1-.145-.131-.176-.164-.209-.2-.247-.239-.29-.282-.338-.329-.393-.38-.456-.438-.526-.499-.605-.566-.695-.638-.792-.715-.9-.792-1.017-.871-1.139-.947-1.264-1.016-1.39-1.073-1.505-1.112-1.608-1.125-1.684-1.107-1.727-1.053-1.722-.955-1.664-.814-1.543-.63-1.357-.41-1.11-.162-.805.101-.462.365-.093.614.277.836.629 1.017.944 1.155 1.208 1.243 1.413 1.286 1.553 1.287 1.632 1.253 1.656 1.192 1.632 1.113 1.572 1.022 1.484.925 1.38.828 1.263.734 1.144.646 1.026.565.913.49.805.425.706.367.615.315.532.27.458.231.39.197.328.167.272.141.221.119.174.098.128.081.085.064.043h.049l.035-.045.022-.088.012-.132.001-.18-.008-.228-.018-.282-.027-.341-.034-.406-.043-.479-.051-.56-.058-.65-.064-.753-.069-.864-.074-.987-.075-1.122-.075-1.265-.071-1.414-.063-1.568-.049-1.716-.031-1.853-.006-1.97.025-2.052.063-2.09.106-2.068.152-1.979.2-1.812.245-1.566.287-1.246.32-.862.343-.432.351.02.348.471.332.893.303 1.266.267 1.572.225 1.804.181 1.958.137 2.038.096 2.051.058 2.01.027 1.925.001 1.812-.019 1.677-.034 1.533-.044 1.386-.051 1.241-.054 1.104-.055.976-.053.856-.05.75-.045.65-.041.565-.035.487-.028.417-.023.355-.015.3-.008.249-.001.204.006.162.015.123.023.088.033.053.043.02.053-.014.066-.046.08-.08.094-.117.112-.153.132-.194.155-.237.18-.284.209-.338.244-.395.283-.46.328-.53.379-.61.436-.695.503-.79.575-.893.656-1 .743-1.113.836-1.226.932-1.335 1.028-1.437 1.118-1.52 1.197-1.58 1.258-1.604 1.294-1.584 1.294-1.51 1.255-1.38 1.169-1.186 1.034-.933.853-.629.632-.286.378.078.11.443-.162.788-.419 1.093-.649 1.347-.843 1.538-.993 1.665-1.096 1.728-1.157 1.736-1.176 1.696-1.162 1.619-1.122 1.516-1.062 1.398-.988 1.27-.908 1.143-.823 1.016-.74.898-.659.787-.583.687-.511.597-.445.515-.385.444-.329.38-.28.324-.233.274-.192.23-.151.192-.115.156-.079.123-.043.094-.009.065.028.037.065.012.103-.014.142-.038.183-.063.228-.087.278-.112.332-.14.394-.17.462-.2.539-.232.626-.269.723-.307.831-.348.949-.39 1.079-.433 1.216-.478 1.361-.519 1.507-.556 1.65-.587 1.779-.609 1.889-.614 1.963-.605 1.994-.572 1.967-.516 1.872-.435 1.706-.33 1.463-.204 1.151-.06.782.093.372.245-.055.392-.475.52-.866.627-1.208.705-1.486.756-1.693.778-1.827.775-1.894.751-1.9.71-1.857.66-1.777.6-1.668.54-1.544.48-1.41.422-1.275.368-1.143.32-1.015.275-.898.236-.788.204-.689.174-.6.15-.518.129-.446.111-.381.097-.323.084-.269.075-.222.066-.179.06-.137.055-.1.051-.063.05-.028.046-.002.016zM810.839 33.501l-1.161.15-.974.132-.817.115-.686.104-.574.096-.478.09-.396.087-.323.084-.259.084-.202.085-.15.086-.103.09-.059.093-.019.098.019.104.054.11.089.119.121.126.153.136.184.146.212.156.242.168.269.18.295.194.32.206.344.222.366.235.386.25.404.266.419.28.431.294.439.307.444.32.445.333.441.342.432.35.418.357.4.36.376.362.348.36.314.355.277.347.235.337.192.324.144.307.097.289.047.268-.001.246-.05.222-.096.197-.14.172-.18.148-.218.123-.251.1-.28.076-.305.057-.325.038-.34.02-.352.007-.359-.005-.362-.016-.362-.023-.358-.028-.352-.031-.343-.032-.333-.031-.319-.028-.305-.023-.289-.016-.273-.009-.255.002-.238.011-.22.024-.201.037-.184.05-.165.066-.147.081-.13.097-.112.115-.096.131-.081.15-.065.168-.05.187-.037.205-.024.224-.013.242-.001.261.007.279.015.295.022.312.027.327.03.34.031.351.031.36.027.368.023.371.016.372.007.369-.006.362-.019.35-.036.335-.053.315-.074.29-.095.26-.118.226-.141.189-.166.147-.191.102-.214.055-.238.005-.259-.045-.28-.095-.298-.144-.314-.193-.328-.238-.338-.281-.345-.32-.35-.354-.352-.384-.352-.408-.347-.428-.342-.443-.334-.452-.325-.456-.313-.456-.301-.452-.288-.443-.273-.43-.26-.417-.245-.397-.231-.378-.216-.355-.203-.33-.189-.306-.177-.278-.164-.25-.154-.22-.142-.191-.133-.16-.124-.127-.116-.094-.108-.059-.102-.022-.096.017-.091.057-.087.102-.085.15-.082.203-.082.26-.082.327-.084.4-.088.484-.093.58-.101.695-.111.827-.126.985-.145 1.175-.149-1.002-.128-1.013-.114-.85-.102-.714-.095-.598-.088-.498-.084-.413-.083-.337-.081-.27-.083-.212-.084-.158-.087-.11-.09-.064-.095-.023-.101.016-.107.054-.115.088-.122.122-.132.154-.141.186-.151.216-.163.246-.175.273-.187.301-.201.327-.214.351-.228.374-.243.395-.257.413-.272.429-.285.44-.299.451-.311.456-.323.456-.333.453-.34.445-.347.43-.351.413-.352.388-.351.36-.347.325-.339.287-.329.245-.317.2-.3.153-.283.103-.263.052-.241.003-.219-.047-.194-.095-.17-.14-.145-.182-.122-.22-.099-.256-.076-.285-.057-.311-.038-.332-.022-.349-.007-.36.004-.368.015-.371.022-.372.027-.368.03-.362.031-.353.031-.342.027-.329.023-.314.016-.298.009-.282V46.4l-.011-.246-.022-.227-.035-.208-.048-.19-.063-.17-.077-.153-.094-.135-.11-.117-.127-.1-.145-.083-.162-.068-.18-.053-.199-.039-.216-.026-.235-.013-.253-.003-.27.007-.287.015-.302.022-.317.027-.331.03-.341.032-.351.032-.358.029-.361.024-.362.017-.36.007-.353-.004-.343-.019-.327-.035-.308-.053-.285-.074-.256-.096-.223-.119-.187-.143-.147-.169-.103-.193-.057-.218-.009-.242.04-.265.088-.286.137-.304.184-.321.229-.335.271-.346.308-.355.343-.359.372-.361.396-.36.416-.358.43-.352.44-.343.444-.334.445-.323.44-.31.433-.296.421-.282.406-.267.389-.253.369-.238.348-.223.324-.21.299-.195.273-.182.246-.17.218-.158.188-.147.158-.138.126-.127.094-.12.06-.112.025-.105-.013-.099-.053-.094-.096-.09-.142-.086-.193-.085-.249-.084-.313-.084-.383-.086-.465-.09-.558-.095-.667-.102-.794-.114-.947-.128-1.129-.147.791-.154 1.001-.133.84-.118.705-.106.591-.097.493-.091.408-.087.334-.085.269-.084.21-.084.158-.086.11-.089.067-.093.025-.097-.013-.103-.049-.11-.083-.116-.117-.125-.148-.134-.178-.144-.208-.155-.237-.166-.265-.178-.291-.191-.316-.205-.341-.219-.362-.233-.383-.248-.401-.263-.417-.277-.429-.292-.438-.306-.444-.319-.445-.33-.442-.34-.434-.35-.421-.355-.403-.36-.38-.362-.352-.36-.32-.356-.283-.349-.243-.339-.198-.326-.152-.31-.105-.292-.055-.271-.006-.25.042-.226.089-.2.133-.177.174-.152.212-.126.246-.104.276-.08.301-.06.322-.04.338-.024.351-.009.358.004.361.014.363.022.359.028.353.03.345.033.334.031.321.028.308.024.291.018.276.01h.258l.241-.01.222-.022.205-.035.186-.048.168-.063.15-.079.132-.094.116-.112.098-.129.083-.147.068-.165.052-.183.039-.203.026-.22.014-.24.004-.258-.006-.276-.014-.293-.021-.31-.026-.323-.03-.338-.031-.35-.031-.36-.028-.366-.024-.37-.017-.373-.008-.37.003-.362.017-.353.033-.337.05-.319.071-.294.091-.265.114-.232.138-.195.162-.154.187-.11.211-.061.234-.014.256.037.276.087.296.136.312.185.325.232.336.274.345.314.35.349.352.38.351.404.349.426.343.44.335.451.326.456.315.456.303.453.29.445.276.433.262.418.247.4.233.381.219.36.205.334.191.31.179.282.166.254.155.226.144.195.135.165.125.132.117.1.109.064.103.028.097-.01.092-.05.088-.095.085-.142.083-.194.081-.252.082-.315.084-.387.087-.47.092-.564.099-.675.11-.805.123-.958.142-1.142.151.622.131 1.041.116.875.104.734.095.615.089.514.085.425.083.348.082.281.082.22.083.167.087.117.09.071.094.03.1-.01.106-.048.113-.083.121-.117.13-.15.14-.18.15-.211.161-.241.172-.27.186-.296.198-.323.212-.347.226-.37.24-.392.255-.41.27-.427.283-.44.297-.449.309-.455.321-.456.331-.454.34-.446.346-.434.35-.415.353-.393.351-.364.347-.33.341-.294.331-.253.318-.207.304-.16.286-.111.266-.06.245-.011.222.04.198.086.173.133.15.176.125.215.103.25.08.28.059.308.041.329.025.346.009.358-.003.367-.013.371-.021.372-.026.37-.03.362-.031.355-.031.344-.028.33-.023.317-.018.301-.01.284-.001.267.009.248.02.23.033.211.046.193.06.174.075.155.091.138.108.12.124.102.142.086.159.07.177.056.196.041.214.028.232.015.25.005.267-.006.284-.014.3-.02.315-.027.328-.03.34-.032.35-.032.356-.03.362-.024.362-.018.36-.01.355.003.344.016.33.032.312.05.289.071.26.093.229.115.193.14.153.164.111.19.064.213.017.239-.032.26-.081.283-.129.302-.177.319-.222.333-.264.344-.302.353-.338.359-.367.361-.393.36-.413.359-.429.353-.438.345-.444.335-.445.324-.441.312-.434.299-.423.284-.409.27-.392.255-.373.24-.351.226-.328.212-.303.197-.278.184-.25.172-.222.16-.193.15-.162.138-.132.13-.099.12-.066.113-.03.106.007.1.046.094.089.09.134.088.185.085.24.084.302.084.371.086.451.089.542.094.649.101.772.112.921.125 1.097.144.393.05zM289.964 33.506l.021.117.061.12.103.121.144.126.185.13.228.138.27.145.311.155.352.165.392.176.429.19.461.202.488.216.507.229.517.242.511.252.493.26.455.265.4.264.326.258.235.245.129.228.016.203-.101.176-.214.144-.319.112-.408.081-.479.052-.532.026-.566.005-.581-.013-.581-.024-.568-.032-.544-.035-.513-.035-.476-.031-.435-.025-.392-.017-.348-.006-.302.007-.256.02-.21.038-.163.054-.116.075-.069.097-.019.121.026.147.071.172.113.198.153.225.192.254.23.282.266.312.298.341.327.37.352.397.37.421.379.441.38.455.367.46.342.455.301.439.245.41.174.366.093.312.001.245-.093.173-.186.096-.274.02-.35-.053-.413-.115-.46-.17-.491-.21-.508-.239-.511-.257-.503-.265-.486-.264-.462-.255-.435-.24-.403-.222-.371-.2-.337-.174-.303-.147-.271-.12-.239-.09-.208-.06-.178-.03h-.15l-.122.033-.096.065-.071.098-.047.132-.023.166v.203l.022.24.042.278.062.317.081.356.099.395.113.434.126.471.136.505.141.533.142.556.136.567.123.568.103.553.076.522.039.473-.004.405-.052.32-.105.22-.157.114h-.209l-.254-.107-.292-.21-.322-.297-.342-.369-.354-.422-.356-.46-.351-.477-.341-.482-.326-.473-.308-.454-.289-.427-.268-.394-.247-.356-.227-.316-.207-.272-.189-.228-.171-.181-.156-.134-.14-.086-.126-.034-.113.019-.102.072-.093.125-.085.176-.079.226-.075.276-.072.324-.071.373-.072.418-.075.463-.078.503-.084.538-.092.566-.101.583-.111.588-.124.578-.136.55-.15.503-.161.434-.173.346-.181.242-.187.126-.189.003-.189-.12-.184-.234-.177-.337-.167-.423-.155-.489-.144-.535-.132-.562-.12-.572-.109-.567-.101-.55-.092-.524-.087-.491-.082-.453-.079-.412-.077-.37-.077-.325-.079-.281-.081-.238-.084-.195-.09-.151-.096-.11-.103-.068-.111-.027-.121.014-.132.054-.144.096-.158.135-.173.177-.189.217-.206.257-.225.297-.244.334-.264.37-.284.403-.304.43-.322.45-.337.462-.35.462-.355.448-.356.42-.347.373-.33.31-.302.228-.267.133-.222.028-.172-.083-.117-.193-.063-.295-.012-.386.036-.46.076-.517.108-.556.132-.575.148-.58.155-.571.156-.552.151-.523.143-.49.129-.451.112-.411.094-.37.072-.326.05-.283.025-.24-.001-.199-.03-.155-.06-.113-.093-.069-.126-.027-.161.013-.195.05-.23.086-.265.12-.3.151-.336.182-.372.21-.407.234-.438.255-.469.271-.492.281-.51.282-.518.274-.515.256-.498.225-.465.181-.418.127-.355.06-.277-.012-.191-.091-.098-.17-.005-.242.085-.31.164-.364.233-.407.286-.436.326-.452.35-.456.361-.451.362-.438.353-.418.336-.396.314-.369.286-.341.257-.314.225-.286.191-.258.157-.233.121-.207.087-.184.051-.161.015-.14-.021-.121-.058-.102-.095-.085-.133-.068-.171-.053-.212-.039-.251-.026-.293-.013-.334-.003-.376.006-.416.014-.455.02-.492.023-.523.023-.549.021-.564.015-.569.005-.559-.01-.533-.03-.488-.052-.423-.079-.342-.108-.242-.138-.132-.169-.016-.196.101-.22.21-.239.309-.252.391-.26.454-.26.498-.259.525-.25.534-.241.528-.228.512-.215.486-.202.452-.187.414-.175.372-.163.329-.153.282-.143.235-.135.187-.128.138-.123.088-.12.035-.119-.018-.117-.072-.12-.122-.122-.171-.127-.22-.132-.268-.14-.313-.15-.359-.16-.401-.17-.44-.184-.476-.197-.504-.21-.525-.224-.533-.237-.53-.248-.508-.256-.471-.261-.413-.26-.336-.256-.244-.244-.136-.226-.022-.204.095-.178.209-.148.311-.118.399-.088.47-.06.52-.036.553-.016h.567l.568.013.554.02.532.022.503.024.467.02.429.017.389.009h.347l.306-.01.264-.022.225-.035.184-.048.145-.063.107-.08.07-.096.033-.114-.004-.134-.04-.155-.075-.177-.111-.2-.146-.224-.18-.25-.214-.277-.247-.304-.277-.333-.305-.36-.33-.387-.348-.412-.36-.432-.363-.448-.355-.456-.335-.454-.3-.443-.251-.417-.188-.38-.111-.327-.024-.266.068-.193.161-.116.251-.037.331.038.4.106.452.165.489.213.511.247.518.27.514.28.499.282.476.275.449.261.417.242.383.217.347.191.312.162.276.13.241.097.206.061.172.025.138-.014.103-.055.071-.099.039-.142.01-.184-.017-.227-.042-.27-.066-.313-.087-.355-.107-.398-.124-.439-.138-.477-.149-.514-.155-.543-.156-.566-.151-.578-.138-.58-.116-.563-.088-.531-.049-.48-.004-.412.046-.326.1-.226.155-.118.206-.008.253.101.292.2.323.285.342.355.354.406.356.442.352.459.342.463.327.455.31.437.291.412.27.38.251.347.231.309.212.27.194.23.177.19.163.148.148.108.136.068.125.027.114-.014.105-.055.098-.097.092-.138.086-.181.082-.224.079-.267.077-.312.077-.355.079-.399.081-.44.084-.48.091-.513.098-.543.106-.563.117-.572.128-.567.139-.545.152-.506.164-.446.174-.367.182-.269.187-.157.19-.036.188.087.184.206.175.315.165.408.154.483.14.537.128.571.115.587.104.586.095.573.086.548.08.514.075.476.073.433.071.388.072.34.074.29.078.243.083.192.089.141.099.09.11.035.122-.017.135-.07.15-.119.167-.166.183-.213.201-.258.221-.302.24-.344.262-.382.282-.417.302-.446.32-.469.337-.48.349-.48.355-.467.355-.436.347-.388.329-.322.303-.24.267-.14.224-.035.174.078.121.187.069.29.019.38-.026.452-.065.508-.095.546-.118.565-.133.569-.141.56-.141.541-.138.515-.13.482-.118.446-.103.408-.087.369-.068.329-.049.29-.028.252-.007.214.016.179.039.142.063.109.088.075.113.043.141.011.169-.02.199-.051.229-.081.26-.11.293-.139.326-.166.36-.191.393-.215.425-.235.454-.251.479-.262.499-.265.509-.261.51-.247.498-.22.472-.184.429-.133.372-.074.299-.004.216.072.123.148.028.223-.064.292-.149.35-.224.397-.285.431-.33.452-.361.46-.377.457-.381.446-.374.428-.358.405-.336.378-.308.35-.276.322-.241.292-.205.263-.166.234-.126.207-.084.18-.041.154.005.13.053.104.101.081.148.061.195.043.242.026.287.01.333-.002.378-.013.422-.023.463-.03.502-.034.535-.035.561-.033.578-.027.583-.017.572-.001.545.019.498.043.433.07.349.103.249.134.138.166.021.195-.094.22-.202.24-.299.255-.378.263-.44.265-.483.262-.507.255-.517.246-.511.233-.495.22-.471.207-.439.193-.404.18-.365.17-.325.157-.283.148-.241.14-.199.132-.157.128-.116.122-.074.12-.034.118-.002.038z" fill="#EDEDED"/></svg>